<?xml version="1.0" encoding="UTF-8" standalone="no"?>
<svg
   xmlns:dc="http://purl.org/dc/elements/1.1/"
   xmlns:cc="http://creativecommons.org/ns#"
   xmlns:rdf="http://www.w3.org/1999/02/22-rdf-syntax-ns#"
   xmlns:svg="http://www.w3.org/2000/svg"
   xmlns="http://www.w3.org/2000/svg"
   xmlns:sodipodi="http://sodipodi.sourceforge.net/DTD/sodipodi-0.dtd"
   xmlns:inkscape="http://www.inkscape.org/namespaces/inkscape"
   width="297mm"
   height="210mm"
   viewBox="0 0 297 210"
   version="1.1"
   id="svg8"
   sodipodi:docname="Martin_Schmall_40er_Claus.svg"
   inkscape:version="1.0.2 (e86c870879, 2021-01-15)">
  <defs
     id="defs2" />
  <sodipodi:namedview
     id="base"
     pagecolor="#ffffff"
     bordercolor="#666666"
     borderopacity="1.0"
     inkscape:pageopacity="0.0"
     inkscape:pageshadow="2"
     inkscape:zoom="0.97375291"
     inkscape:cx="488.68629"
     inkscape:cy="400.93789"
     inkscape:document-units="mm"
     inkscape:current-layer="layer1"
     showgrid="true"
     inkscape:window-width="1920"
     inkscape:window-height="1149"
     inkscape:window-x="0"
     inkscape:window-y="27"
     inkscape:window-maximized="1"
     inkscape:snap-global="false"
     inkscape:document-rotation="0" />
  <metadata
     id="metadata5">
    <rdf:RDF>
      <cc:Work
         rdf:about="">
        <dc:format>image/svg+xml</dc:format>
        <dc:type
           rdf:resource="http://purl.org/dc/dcmitype/StillImage" />
        <dc:title></dc:title>
      </cc:Work>
    </rdf:RDF>
  </metadata>
  <g
     inkscape:label="Ebene 1"
     inkscape:groupmode="layer"
     id="layer1"
     transform="translate(0,-87)">
    <g
       aria-label="⬟ Claus Schrammel 2022"
       id="text854"
       style="font-style:normal;font-weight:normal;font-size:10.5833px;line-height:1.25;font-family:sans-serif;fill:#000000;fill-opacity:1;stroke:none;stroke-width:0.264583">
      <path
         d="m 14.284158,288.69873 7.061054,-5.13456 7.061054,5.13456 -2.695437,8.30128 h -8.731233 z"
         style="font-style:normal;font-variant:normal;font-weight:bold;font-stretch:normal;font-size:16.9333px;font-family:Quicksand;-inkscape-font-specification:'Quicksand, Bold';font-variant-ligatures:normal;font-variant-caps:normal;font-variant-numeric:normal;font-variant-east-asian:normal;stroke-width:0.264583"
         id="path854" />
      <path
         d="m 43.012538,285.27595 q 0.524933,0.27093 0.524933,0.8636 0,0.3556 -0.254,0.69426 -0.270933,0.3556 -0.694265,0.3556 -0.287866,0 -0.575732,-0.1524 -0.829732,-0.38946 -1.79493,-0.38946 -1.185331,0 -2.065863,0.508 -0.880531,0.49106 -1.354664,1.40546 -0.474132,0.89747 -0.474132,2.06586 0,1.99813 1.066798,3.03106 1.083731,1.03293 2.827861,1.03293 1.032931,0 1.79493,-0.38946 0.304799,-0.13547 0.541865,-0.13547 0.440266,0 0.745065,0.37254 0.254,0.32173 0.254,0.69426 0,0.27093 -0.135466,0.49107 -0.135467,0.22013 -0.389466,0.33866 -1.320798,0.6604 -2.810928,0.6604 -1.659464,0 -3.047994,-0.69426 -1.388531,-0.7112 -2.218262,-2.0828 -0.829732,-1.3716 -0.829732,-3.31893 0,-1.72719 0.778932,-3.09879 0.795865,-1.3716 2.184395,-2.1336 1.388531,-0.77893 3.132661,-0.77893 1.507064,0 2.793994,0.6604 z"
         style="font-style:normal;font-variant:normal;font-weight:bold;font-stretch:normal;font-size:16.9333px;font-family:Quicksand;-inkscape-font-specification:'Quicksand, Bold';font-variant-ligatures:normal;font-variant-caps:normal;font-variant-numeric:normal;font-variant-east-asian:normal;stroke-width:0.264583"
         id="path856" />
      <path
         d="m 47.364378,295.5206 q 0,0.44026 -0.304799,0.74506 -0.287866,0.28787 -0.728132,0.28787 -0.423333,0 -0.711199,-0.28787 -0.287866,-0.3048 -0.287866,-0.74506 v -10.46478 q 0,-0.44027 0.287866,-0.72813 0.3048,-0.3048 0.745065,-0.3048 0.423333,0 0.711199,0.3048 0.287866,0.28786 0.287866,0.72813 z"
         style="font-style:normal;font-variant:normal;font-weight:bold;font-stretch:normal;font-size:16.9333px;font-family:Quicksand;-inkscape-font-specification:'Quicksand, Bold';font-variant-ligatures:normal;font-variant-caps:normal;font-variant-numeric:normal;font-variant-east-asian:normal;stroke-width:0.264583"
         id="path858" />
      <path
         d="m 57.067136,287.32488 q 0.440266,0 0.728132,0.28787 0.287866,0.28786 0.287866,0.74506 v 7.16279 q 0,0.44026 -0.287866,0.74506 -0.287866,0.28787 -0.728132,0.28787 -0.440266,0 -0.728132,-0.28787 -0.270933,-0.28786 -0.287866,-0.72813 -0.423332,0.49107 -1.151464,0.84666 -0.711199,0.33867 -1.507064,0.33867 -1.168398,0 -2.116663,-0.59266 -0.948264,-0.6096 -1.507063,-1.6764 -0.541866,-1.0668 -0.541866,-2.42146 0,-1.35467 0.541866,-2.42147 0.541865,-1.08373 1.473197,-1.67639 0.948265,-0.6096 2.082796,-0.6096 0.812798,0 1.523997,0.3048 0.711198,0.28786 1.202264,0.74506 v -0.0169 q 0,-0.44027 0.287866,-0.72813 0.287866,-0.3048 0.728132,-0.3048 z m -3.420527,7.53532 q 1.100665,0 1.79493,-0.79587 0.694266,-0.8128 0.694266,-2.03199 0,-1.2192 -0.694266,-2.032 -0.694265,-0.8128 -1.79493,-0.8128 -1.083731,0 -1.777996,0.8128 -0.694265,0.8128 -0.694265,2.032 0,1.21919 0.677332,2.03199 0.694265,0.79587 1.794929,0.79587 z"
         style="font-style:normal;font-variant:normal;font-weight:bold;font-stretch:normal;font-size:16.9333px;font-family:Quicksand;-inkscape-font-specification:'Quicksand, Bold';font-variant-ligatures:normal;font-variant-caps:normal;font-variant-numeric:normal;font-variant-east-asian:normal;stroke-width:0.264583"
         id="path860" />
      <path
         d="m 66.837634,287.49421 q 0.440266,0 0.728132,0.3048 0.287866,0.28787 0.287866,0.72813 v 4.30106 q 0,1.8288 -1.015998,2.86173 -0.999065,1.03293 -2.861728,1.03293 -1.862663,0 -2.861728,-1.03293 -0.999064,-1.03293 -0.999064,-2.86173 v -4.30106 q 0,-0.44026 0.287866,-0.72813 0.287866,-0.3048 0.728132,-0.3048 0.440265,0 0.728132,0.3048 0.287866,0.28787 0.287866,0.72813 v 4.30106 q 0,1.03293 0.457199,1.54093 0.457199,0.49107 1.371597,0.49107 0.931332,0 1.388531,-0.49107 0.457199,-0.508 0.457199,-1.54093 v -4.30106 q 0,-0.44026 0.287866,-0.72813 0.287866,-0.3048 0.728132,-0.3048 z"
         style="font-style:normal;font-variant:normal;font-weight:bold;font-stretch:normal;font-size:16.9333px;font-family:Quicksand;-inkscape-font-specification:'Quicksand, Bold';font-variant-ligatures:normal;font-variant-caps:normal;font-variant-numeric:normal;font-variant-east-asian:normal;stroke-width:0.264583"
         id="path862" />
      <path
         d="m 69.530024,295.14806 q -0.1524,-0.2032 -0.1524,-0.508 0,-0.44026 0.440266,-0.74506 0.237066,-0.1524 0.491065,-0.1524 0.3556,0 0.677332,0.32173 0.507999,0.52494 1.049865,0.77893 0.558799,0.254 1.337731,0.254 1.320797,-0.0508 1.320797,-0.99906 0,-0.49107 -0.457199,-0.74507 -0.440266,-0.254 -1.388531,-0.50799 -0.982131,-0.27094 -1.608663,-0.54187 -0.609599,-0.27093 -1.066798,-0.8128 -0.440266,-0.5588 -0.440266,-1.49013 0,-0.8128 0.457199,-1.40546 0.474133,-0.6096 1.219198,-0.93133 0.761998,-0.33867 1.608663,-0.33867 0.863599,0 1.727197,0.32173 0.863598,0.32173 1.354664,0.94827 0.220133,0.27093 0.220133,0.6096 0,0.38946 -0.321733,0.64346 -0.237066,0.18627 -0.541865,0.18627 -0.372533,0 -0.609599,-0.23707 -0.3048,-0.37253 -0.795865,-0.59266 -0.474133,-0.22014 -1.083732,-0.22014 -1.28693,0 -1.28693,0.93133 0,0.37254 0.237066,0.6096 0.237066,0.22014 0.592665,0.3556 0.372533,0.11854 1.032932,0.3048 0.914398,0.254 1.523997,0.52493 0.609598,0.27094 1.032931,0.82974 0.423332,0.55879 0.423332,1.47319 0,0.82973 -0.491065,1.45627 -0.491066,0.6096 -1.269998,0.93133 -0.761998,0.32173 -1.574797,0.32173 -1.117597,0 -2.082796,-0.37253 -0.965198,-0.37253 -1.574796,-1.20227 z"
         style="font-style:normal;font-variant:normal;font-weight:bold;font-stretch:normal;font-size:16.9333px;font-family:Quicksand;-inkscape-font-specification:'Quicksand, Bold';font-variant-ligatures:normal;font-variant-caps:normal;font-variant-numeric:normal;font-variant-east-asian:normal;stroke-width:0.264583"
         id="path864" />
      <path
         d="m 86.937411,296.72286 q -1.219198,0 -2.167462,-0.3048 -0.948265,-0.3048 -1.777997,-1.03293 -0.457199,-0.4064 -0.457199,-0.89746 0,-0.38947 0.287866,-0.67734 0.287866,-0.3048 0.694265,-0.3048 0.321733,0 0.575733,0.2032 0.677332,0.5588 1.320797,0.8128 0.643465,0.254 1.523997,0.254 0.948265,0 1.625597,-0.42333 0.694265,-0.42333 0.694265,-1.04987 0,-0.76199 -0.677332,-1.18533 -0.677332,-0.44026 -2.150529,-0.6604 -3.708393,-0.54186 -3.708393,-3.45439 0,-1.0668 0.558799,-1.84573 0.558799,-0.79586 1.523997,-1.20226 0.965198,-0.42334 2.150529,-0.42334 1.066798,0 1.99813,0.32174 0.948264,0.32173 1.574797,0.84666 0.491065,0.38947 0.491065,0.89747 0,0.38946 -0.287866,0.69426 -0.287866,0.28787 -0.677332,0.28787 -0.253999,0 -0.457199,-0.1524 -0.440266,-0.3556 -1.236131,-0.64347 -0.778932,-0.3048 -1.405464,-0.3048 -1.066798,0 -1.659463,0.4064 -0.575732,0.38947 -0.575732,1.03293 0,0.72814 0.592665,1.10067 0.609599,0.37253 1.89653,0.6096 1.456264,0.254 2.319862,0.6604 0.880531,0.38946 1.320797,1.08373 0.440266,0.67733 0.440266,1.81186 0,1.0668 -0.609599,1.8796 -0.592665,0.79586 -1.59173,1.23613 -0.999065,0.42333 -2.150529,0.42333 z"
         style="font-style:normal;font-variant:normal;font-weight:bold;font-stretch:normal;font-size:16.9333px;font-family:Quicksand;-inkscape-font-specification:'Quicksand, Bold';font-variant-ligatures:normal;font-variant-caps:normal;font-variant-numeric:normal;font-variant-east-asian:normal;stroke-width:0.264583"
         id="path866" />
      <path
         d="m 97.01269,287.32488 q 1.439331,0 2.319863,0.4572 0.880527,0.44026 0.880527,1.18533 0,0.37253 -0.220129,0.6604 -0.220133,0.27093 -0.575732,0.27093 -0.270933,0 -0.440266,-0.0677 -0.169333,-0.0847 -0.338666,-0.2032 -0.152399,-0.13547 -0.304799,-0.22013 -0.169333,-0.0847 -0.507999,-0.1524 -0.321733,-0.0677 -0.524932,-0.0677 -1.269998,0 -1.99813,0.79587 -0.711198,0.77893 -0.711198,2.04893 0,1.21919 0.728131,2.03199 0.728132,0.79587 1.862663,0.79587 0.829732,0 1.236131,-0.2032 0.1016,-0.0508 0.270933,-0.16933 0.186266,-0.13547 0.338666,-0.2032 0.1524,-0.0677 0.372533,-0.0677 0.423332,0 0.660394,0.27094 0.254,0.27093 0.254,0.69426 0,0.4064 -0.474128,0.762 -0.474133,0.3556 -1.253065,0.57573 -0.778931,0.2032 -1.659463,0.2032 -1.303864,0 -2.302929,-0.6096 -0.982131,-0.6096 -1.523997,-1.67639 -0.541865,-1.08374 -0.541865,-2.40453 0,-1.3716 0.558798,-2.4384 0.575733,-1.0668 1.591731,-1.65946 1.015998,-0.6096 2.302928,-0.6096 z"
         style="font-style:normal;font-variant:normal;font-weight:bold;font-stretch:normal;font-size:16.9333px;font-family:Quicksand;-inkscape-font-specification:'Quicksand, Bold';font-variant-ligatures:normal;font-variant-caps:normal;font-variant-numeric:normal;font-variant-east-asian:normal;stroke-width:0.264583"
         id="path868" />
      <path
         d="m 106.54613,287.32488 q 1.6764,0 2.31986,1.03293 0.64347,1.016 0.64347,2.82786 v 4.33493 q 0,0.44026 -0.28787,0.74506 -0.28786,0.28787 -0.72813,0.28787 -0.44027,0 -0.72813,-0.28787 -0.28787,-0.3048 -0.28787,-0.74506 v -4.33493 q 0,-0.93133 -0.37253,-1.45626 -0.3556,-0.54187 -1.27,-0.54187 -0.94826,0 -1.49013,0.57573 -0.52493,0.5588 -0.52493,1.4224 v 4.33493 q 0,0.44026 -0.28787,0.74506 -0.28786,0.28787 -0.72813,0.28787 -0.44026,0 -0.72813,-0.28787 -0.28787,-0.3048 -0.28787,-0.74506 v -10.46478 q 0,-0.44027 0.28787,-0.72813 0.28787,-0.3048 0.72813,-0.3048 0.44027,0 0.72813,0.3048 0.28787,0.28786 0.28787,0.72813 v 3.74226 q 0.4572,-0.6096 1.15146,-1.03293 0.7112,-0.44027 1.5748,-0.44027 z"
         style="font-style:normal;font-variant:normal;font-weight:bold;font-stretch:normal;font-size:16.9333px;font-family:Quicksand;-inkscape-font-specification:'Quicksand, Bold';font-variant-ligatures:normal;font-variant-caps:normal;font-variant-numeric:normal;font-variant-east-asian:normal;stroke-width:0.264583"
         id="path870" />
      <path
         d="m 116.41822,287.32488 q 0.508,0 0.84667,0.28787 0.3556,0.28786 0.3556,0.67733 0,0.52493 -0.27094,0.79586 -0.27093,0.254 -0.64346,0.254 -0.254,0 -0.57574,-0.11853 -0.0508,-0.0169 -0.23706,-0.0677 -0.16933,-0.0508 -0.37253,-0.0508 -0.44027,0 -0.84667,0.27093 -0.4064,0.27093 -0.67733,0.82973 -0.254,0.54187 -0.254,1.30386 v 4.0132 q 0,0.44026 -0.28787,0.74506 -0.28786,0.28787 -0.72813,0.28787 -0.44026,0 -0.72813,-0.28787 -0.28787,-0.3048 -0.28787,-0.74506 v -6.99346 q 0,-0.44026 0.28787,-0.72813 0.28787,-0.3048 0.72813,-0.3048 0.44027,0 0.72813,0.3048 0.28787,0.28787 0.28787,0.72813 v 0.22014 q 0.38947,-0.69427 1.1176,-1.04987 0.72813,-0.37253 1.55786,-0.37253 z"
         style="font-style:normal;font-variant:normal;font-weight:bold;font-stretch:normal;font-size:16.9333px;font-family:Quicksand;-inkscape-font-specification:'Quicksand, Bold';font-variant-ligatures:normal;font-variant-caps:normal;font-variant-numeric:normal;font-variant-east-asian:normal;stroke-width:0.264583"
         id="path872" />
      <path
         d="m 126.18869,287.32488 q 0.44026,0 0.72813,0.28787 0.28787,0.28786 0.28787,0.74506 v 7.16279 q 0,0.44026 -0.28787,0.74506 -0.28787,0.28787 -0.72813,0.28787 -0.44027,0 -0.72813,-0.28787 -0.27094,-0.28786 -0.28787,-0.72813 -0.42333,0.49107 -1.15146,0.84666 -0.7112,0.33867 -1.50707,0.33867 -1.1684,0 -2.11666,-0.59266 -0.94827,-0.6096 -1.50706,-1.6764 -0.54187,-1.0668 -0.54187,-2.42146 0,-1.35467 0.54187,-2.42147 0.54186,-1.08373 1.47319,-1.67639 0.94827,-0.6096 2.0828,-0.6096 0.8128,0 1.524,0.3048 0.71119,0.28786 1.20226,0.74506 v -0.0169 q 0,-0.44027 0.28787,-0.72813 0.28786,-0.3048 0.72813,-0.3048 z m -3.42053,7.53532 q 1.10067,0 1.79493,-0.79587 0.69427,-0.8128 0.69427,-2.03199 0,-1.2192 -0.69427,-2.032 -0.69426,-0.8128 -1.79493,-0.8128 -1.08373,0 -1.778,0.8128 -0.69426,0.8128 -0.69426,2.032 0,1.21919 0.67733,2.03199 0.69427,0.79587 1.79493,0.79587 z"
         style="font-style:normal;font-variant:normal;font-weight:bold;font-stretch:normal;font-size:16.9333px;font-family:Quicksand;-inkscape-font-specification:'Quicksand, Bold';font-variant-ligatures:normal;font-variant-caps:normal;font-variant-numeric:normal;font-variant-east-asian:normal;stroke-width:0.264583"
         id="path874" />
      <path
         d="m 139.85385,287.32488 q 1.67639,0 2.31986,1.03293 0.64346,1.016 0.64346,2.82786 v 4.33493 q 0,0.44026 -0.28786,0.74506 -0.28787,0.28787 -0.72813,0.28787 -0.44027,0 -0.72814,-0.28787 -0.28786,-0.3048 -0.28786,-0.74506 v -4.33493 q 0,-0.93133 -0.37254,-1.45626 -0.35559,-0.54187 -1.26999,-0.54187 -0.94827,0 -1.49013,0.57573 -0.52494,0.5588 -0.52494,1.4224 v 4.33493 q 0,0.44026 -0.28786,0.74506 -0.28787,0.28787 -0.72813,0.28787 -0.44027,0 -0.72814,-0.28787 -0.28786,-0.3048 -0.28786,-0.74506 v -4.33493 q 0,-0.93133 -0.37253,-1.45626 -0.3556,-0.54187 -1.27,-0.54187 -0.94827,0 -1.49013,0.57573 -0.52493,0.5588 -0.52493,1.4224 v 4.33493 q 0,0.44026 -0.28787,0.74506 -0.28787,0.28787 -0.72813,0.28787 -0.44027,0 -0.72813,-0.28787 -0.28787,-0.3048 -0.28787,-0.74506 v -6.99346 q 0,-0.44026 0.28787,-0.72813 0.28786,-0.3048 0.72813,-0.3048 0.44026,0 0.72813,0.3048 0.28787,0.28787 0.28787,0.72813 v 0.27094 q 0.45719,-0.6096 1.15146,-1.03293 0.7112,-0.44027 1.5748,-0.44027 2.13359,0 2.72626,1.86266 0.38946,-0.7112 1.1684,-1.28693 0.79586,-0.57573 1.79493,-0.57573 z"
         style="font-style:normal;font-variant:normal;font-weight:bold;font-stretch:normal;font-size:16.9333px;font-family:Quicksand;-inkscape-font-specification:'Quicksand, Bold';font-variant-ligatures:normal;font-variant-caps:normal;font-variant-numeric:normal;font-variant-east-asian:normal;stroke-width:0.264583"
         id="path876" />
      <path
         d="m 155.46633,287.32488 q 1.6764,0 2.31987,1.03293 0.64346,1.016 0.64346,2.82786 v 4.33493 q 0,0.44026 -0.28787,0.74506 -0.28786,0.28787 -0.72813,0.28787 -0.44026,0 -0.72813,-0.28787 -0.28787,-0.3048 -0.28787,-0.74506 v -4.33493 q 0,-0.93133 -0.37253,-1.45626 -0.3556,-0.54187 -1.27,-0.54187 -0.94826,0 -1.49013,0.57573 -0.52493,0.5588 -0.52493,1.4224 v 4.33493 q 0,0.44026 -0.28786,0.74506 -0.28787,0.28787 -0.72814,0.28787 -0.44026,0 -0.72813,-0.28787 -0.28786,-0.3048 -0.28786,-0.74506 v -4.33493 q 0,-0.93133 -0.37254,-1.45626 -0.3556,-0.54187 -1.26999,-0.54187 -0.94827,0 -1.49013,0.57573 -0.52494,0.5588 -0.52494,1.4224 v 4.33493 q 0,0.44026 -0.28786,0.74506 -0.28787,0.28787 -0.72813,0.28787 -0.44027,0 -0.72814,-0.28787 -0.28786,-0.3048 -0.28786,-0.74506 v -6.99346 q 0,-0.44026 0.28786,-0.72813 0.28787,-0.3048 0.72814,-0.3048 0.44026,0 0.72813,0.3048 0.28786,0.28787 0.28786,0.72813 v 0.27094 q 0.4572,-0.6096 1.15147,-1.03293 0.7112,-0.44027 1.57479,-0.44027 2.1336,0 2.72627,1.86266 0.38946,-0.7112 1.16839,-1.28693 0.79587,-0.57573 1.79493,-0.57573 z"
         style="font-style:normal;font-variant:normal;font-weight:bold;font-stretch:normal;font-size:16.9333px;font-family:Quicksand;-inkscape-font-specification:'Quicksand, Bold';font-variant-ligatures:normal;font-variant-caps:normal;font-variant-numeric:normal;font-variant-east-asian:normal;stroke-width:0.264583"
         id="path878" />
      <path
         d="m 168.75894,291.8122 q -0.0169,0.4064 -0.32173,0.6604 -0.3048,0.254 -0.7112,0.254 h -5.58799 q 0.2032,0.99907 0.93134,1.5748 0.72813,0.5588 1.64253,0.5588 0.69426,0 1.08373,-0.11854 0.38946,-0.13546 0.6096,-0.27093 0.23706,-0.1524 0.32173,-0.2032 0.3048,-0.1524 0.57573,-0.1524 0.3556,0 0.6096,0.254 0.254,0.254 0.254,0.59267 0,0.4572 -0.47413,0.82973 -0.47414,0.38947 -1.27,0.6604 -0.79587,0.27093 -1.60867,0.27093 -1.42239,0 -2.48919,-0.59266 -1.04986,-0.59267 -1.6256,-1.6256 -0.57573,-1.04987 -0.57573,-2.35373 0,-1.45626 0.6096,-2.55693 0.6096,-1.10066 1.60866,-1.6764 0.99907,-0.59266 2.1336,-0.59266 1.1176,0 2.09973,0.6096 0.99906,0.6096 1.59173,1.64253 0.59266,1.03293 0.59266,2.23519 z m -4.28412,-2.62466 q -1.96426,0 -2.31986,1.84573 h 4.43652 v -0.11853 q -0.0677,-0.7112 -0.69426,-1.2192 -0.62654,-0.508 -1.4224,-0.508 z"
         style="font-style:normal;font-variant:normal;font-weight:bold;font-stretch:normal;font-size:16.9333px;font-family:Quicksand;-inkscape-font-specification:'Quicksand, Bold';font-variant-ligatures:normal;font-variant-caps:normal;font-variant-numeric:normal;font-variant-east-asian:normal;stroke-width:0.264583"
         id="path880" />
      <path
         d="m 172.65361,295.5206 q 0,0.44026 -0.3048,0.74506 -0.28787,0.28787 -0.72813,0.28787 -0.42334,0 -0.7112,-0.28787 -0.28787,-0.3048 -0.28787,-0.74506 v -10.46478 q 0,-0.44027 0.28787,-0.72813 0.3048,-0.3048 0.74506,-0.3048 0.42334,0 0.7112,0.3048 0.28787,0.28786 0.28787,0.72813 z"
         style="font-style:normal;font-variant:normal;font-weight:bold;font-stretch:normal;font-size:16.9333px;font-family:Quicksand;-inkscape-font-specification:'Quicksand, Bold';font-variant-ligatures:normal;font-variant-caps:normal;font-variant-numeric:normal;font-variant-east-asian:normal;stroke-width:0.264583"
         id="path882" />
      <path
         d="m 186.28488,294.69086 q 0.4064,0 0.67733,0.27094 0.27093,0.27093 0.27093,0.67733 0,0.38947 -0.27093,0.6604 -0.27093,0.254 -0.67733,0.254 h -5.75732 q -0.44027,0 -0.69427,-0.27093 -0.254,-0.27094 -0.254,-0.69427 0,-0.42333 0.3048,-0.74507 l 3.69146,-3.94545 q 0.62653,-0.67734 0.98213,-1.35467 0.37253,-0.69426 0.37253,-1.27 0,-0.76199 -0.54186,-1.32079 -0.54187,-0.5588 -1.25307,-0.5588 -0.49106,0 -0.99906,0.33866 -0.49107,0.32174 -0.89747,0.8636 -0.30479,0.4064 -0.77893,0.4064 -0.37253,0 -0.69426,-0.28786 -0.3048,-0.28787 -0.3048,-0.64347 0,-0.254 0.16933,-0.508 0.16933,-0.27093 0.508,-0.6096 0.64347,-0.64346 1.49013,-1.03293 0.84667,-0.38947 1.6256,-0.38947 1.1176,0 1.96426,0.47414 0.84667,0.47413 1.30386,1.30386 0.4572,0.82973 0.4572,1.8796 0,1.03293 -0.5588,2.13359 -0.54186,1.08373 -1.47319,2.0828 l -2.15053,2.28599 z"
         style="font-style:normal;font-variant:normal;font-weight:bold;font-stretch:normal;font-size:16.9333px;font-family:Quicksand;-inkscape-font-specification:'Quicksand, Bold';font-variant-ligatures:normal;font-variant-caps:normal;font-variant-numeric:normal;font-variant-east-asian:normal;stroke-width:0.264583"
         id="path884" />
      <path
         d="m 192.93965,296.72286 q -1.4224,0 -2.45533,-0.762 -1.016,-0.762 -1.54093,-2.13359 -0.52493,-1.38853 -0.52493,-3.2004 0,-1.81186 0.52493,-3.18346 0.52493,-1.38853 1.54093,-2.15053 1.03293,-0.762 2.45533,-0.762 1.4224,0 2.43839,0.762 1.03294,0.762 1.55787,2.15053 0.52493,1.3716 0.52493,3.18346 0,1.81187 -0.52493,3.2004 -0.52493,1.37159 -1.55787,2.13359 -1.01599,0.762 -2.43839,0.762 z m 0,-2.032 q 1.08373,0 1.69333,-1.03293 0.62653,-1.03293 0.62653,-3.03106 0,-1.99813 -0.62653,-3.03106 -0.6096,-1.03293 -1.69333,-1.03293 -1.08373,0 -1.71026,1.03293 -0.6096,1.03293 -0.6096,3.03106 0,1.99813 0.6096,3.03106 0.62653,1.03293 1.71026,1.03293 z"
         style="font-style:normal;font-variant:normal;font-weight:bold;font-stretch:normal;font-size:16.9333px;font-family:Quicksand;-inkscape-font-specification:'Quicksand, Bold';font-variant-ligatures:normal;font-variant-caps:normal;font-variant-numeric:normal;font-variant-east-asian:normal;stroke-width:0.264583"
         id="path886" />
      <path
         d="m 205.75813,294.69086 q 0.4064,0 0.67733,0.27094 0.27093,0.27093 0.27093,0.67733 0,0.38947 -0.27093,0.6604 -0.27093,0.254 -0.67733,0.254 h -5.75732 q -0.44027,0 -0.69427,-0.27093 -0.254,-0.27094 -0.254,-0.69427 0,-0.42333 0.3048,-0.74507 l 3.69146,-3.94545 q 0.62653,-0.67734 0.98213,-1.35467 0.37254,-0.69426 0.37254,-1.27 0,-0.76199 -0.54187,-1.32079 -0.54187,-0.5588 -1.25306,-0.5588 -0.49107,0 -0.99907,0.33866 -0.49106,0.32174 -0.89746,0.8636 -0.3048,0.4064 -0.77894,0.4064 -0.37253,0 -0.69426,-0.28786 -0.3048,-0.28787 -0.3048,-0.64347 0,-0.254 0.16933,-0.508 0.16934,-0.27093 0.508,-0.6096 0.64347,-0.64346 1.49013,-1.03293 0.84667,-0.38947 1.6256,-0.38947 1.1176,0 1.96426,0.47414 0.84667,0.47413 1.30387,1.30386 0.45719,0.82973 0.45719,1.8796 0,1.03293 -0.55879,2.13359 -0.54187,1.08373 -1.4732,2.0828 l -2.15053,2.28599 z"
         style="font-style:normal;font-variant:normal;font-weight:bold;font-stretch:normal;font-size:16.9333px;font-family:Quicksand;-inkscape-font-specification:'Quicksand, Bold';font-variant-ligatures:normal;font-variant-caps:normal;font-variant-numeric:normal;font-variant-east-asian:normal;stroke-width:0.264583"
         id="path888" />
      <path
         d="m 214.83436,294.69086 q 0.4064,0 0.67733,0.27094 0.27094,0.27093 0.27094,0.67733 0,0.38947 -0.27094,0.6604 -0.27093,0.254 -0.67733,0.254 h -5.75732 q -0.44027,0 -0.69426,-0.27093 -0.254,-0.27094 -0.254,-0.69427 0,-0.42333 0.3048,-0.74507 l 3.69145,-3.94545 q 0.62654,-0.67734 0.98214,-1.35467 0.37253,-0.69426 0.37253,-1.27 0,-0.76199 -0.54187,-1.32079 -0.54186,-0.5588 -1.25306,-0.5588 -0.49107,0 -0.99907,0.33866 -0.49106,0.32174 -0.89746,0.8636 -0.3048,0.4064 -0.77893,0.4064 -0.37254,0 -0.69427,-0.28786 -0.3048,-0.28787 -0.3048,-0.64347 0,-0.254 0.16934,-0.508 0.16933,-0.27093 0.50799,-0.6096 0.64347,-0.64346 1.49013,-1.03293 0.84667,-0.38947 1.6256,-0.38947 1.1176,0 1.96426,0.47414 0.84667,0.47413 1.30387,1.30386 0.4572,0.82973 0.4572,1.8796 0,1.03293 -0.5588,2.13359 -0.54187,1.08373 -1.4732,2.0828 l -2.15053,2.28599 z"
         style="font-style:normal;font-variant:normal;font-weight:bold;font-stretch:normal;font-size:16.9333px;font-family:Quicksand;-inkscape-font-specification:'Quicksand, Bold';font-variant-ligatures:normal;font-variant-caps:normal;font-variant-numeric:normal;font-variant-east-asian:normal;stroke-width:0.264583"
         id="path890" />
    </g>
    <path
       cx="54.309521"
       cy="246.09227"
       r="15"
       id="path817"
       style="opacity:0.97;fill:#ff00ff;fill-opacity:0.679707;stroke:none;stroke-width:5;stroke-linecap:round;stroke-linejoin:round;stroke-miterlimit:4;stroke-dasharray:none;stroke-dashoffset:0;stroke-opacity:0.454768;paint-order:normal"
       d=""
       inkscape:connector-curvature="0" />
  </g>
</svg>
