<?xml version="1.0" encoding="UTF-8" standalone="no"?>
<svg
   xmlns:dc="http://purl.org/dc/elements/1.1/"
   xmlns:cc="http://creativecommons.org/ns#"
   xmlns:rdf="http://www.w3.org/1999/02/22-rdf-syntax-ns#"
   xmlns:svg="http://www.w3.org/2000/svg"
   xmlns="http://www.w3.org/2000/svg"
   xmlns:xlink="http://www.w3.org/1999/xlink"
   xmlns:sodipodi="http://sodipodi.sourceforge.net/DTD/sodipodi-0.dtd"
   xmlns:inkscape="http://www.inkscape.org/namespaces/inkscape"
   width="103.54976mm"
   height="68.264763mm"
   viewBox="0 0 103.54976 68.264763"
   version="1.1"
   id="svg8"
   sodipodi:docname="Michael+Stefanie_Namen.svg"
   inkscape:version="1.0.2 (e86c870879, 2021-01-15)">
  <defs
     id="defs2">
    <clipPath
       id="SVGID_2_">
      <use
         height="100%"
         width="100%"
         y="0"
         x="0"
         xlink:href="#SVGID_1_"
         style="overflow:visible"
         id="use4698" />
    </clipPath>
    <rect
       id="SVGID_1_"
       x="-3.5"
       y="6.8000002"
       width="541.09998"
       height="163.89999" />
  </defs>
  <sodipodi:namedview
     id="base"
     pagecolor="#ffffff"
     bordercolor="#666666"
     borderopacity="1.0"
     inkscape:pageopacity="0.0"
     inkscape:pageshadow="2"
     inkscape:zoom="1.979899"
     inkscape:cx="188.4912"
     inkscape:cy="146.20863"
     inkscape:document-units="mm"
     inkscape:current-layer="layer1"
     showgrid="false"
     inkscape:window-width="1920"
     inkscape:window-height="1149"
     inkscape:window-x="0"
     inkscape:window-y="27"
     inkscape:window-maximized="1"
     fit-margin-top="2"
     fit-margin-left="2"
     fit-margin-bottom="2"
     fit-margin-right="2"
     inkscape:document-rotation="0" />
  <metadata
     id="metadata5">
    <rdf:RDF>
      <cc:Work
         rdf:about="">
        <dc:format>image/svg+xml</dc:format>
        <dc:type
           rdf:resource="http://purl.org/dc/dcmitype/StillImage" />
        <dc:title></dc:title>
      </cc:Work>
    </rdf:RDF>
  </metadata>
  <g
     inkscape:label="Ebene 1"
     inkscape:groupmode="layer"
     id="layer1"
     transform="translate(-46.380052,-90.055683)">
    <g
       id="g4962"
       transform="translate(25.123336,-27.127857)"
       inkscape:label="Michael">
      <path
         d="m 42.889328,183.0673 q -0.2794,-0.1778 -0.5334,-0.4826 -0.2794,-0.2794 -0.4318,-0.7112 -0.1524,-0.4318 -0.127,-1.016 0,-0.6096 0.254,-1.397 0.2794,-0.8636 0.7874,-1.778 0.508,-0.9144 0.9906,-1.7526 0.3556,-0.5588 0.7112,-1.1938 0.3556,-0.635 0.381,-0.889 0,-0.4064 0.2794,-0.6858 0.2794,-0.2794 0.6604,-0.2794 0.4064,0 0.6858,0.2794 0.2794,0.254 0.3048,0.6604 0,0.5588 -0.3556,1.27 -0.3556,0.7112 -1.016,1.8288 -0.3048,0.5334 -0.7112,1.2446 -0.4064,0.6858 -0.7112,1.3462 -0.2794,0.6604 -0.381,1.2192 -0.0762,0.5334 0.2286,0.7112 0.0508,0.0254 0.1778,0.0254 0.1524,0 0.381,-0.1016 0.2286,-0.1016 0.5588,-0.3302 0.3556,-0.2286 0.8128,-0.635 0.4572,-0.4064 0.889,-0.8636 0.4318,-0.4826 0.7874,-0.9144 0.381,-0.4572 0.6604,-0.8128 0.2794,-0.3556 0.4318,-0.5842 0.2286,-0.3048 0.4572,-0.381 0.254,-0.0762 0.4318,0.0254 0.1778,0.0762 0.2032,0.3048 0.0508,0.2286 -0.1778,0.5334 -0.127,0.1524 -0.4572,0.7366 -0.3302,0.5842 -0.8382,1.3208 -0.508,0.7366 -1.143,1.524 -0.635,0.762 -1.3462,1.2954 -0.6858,0.5588 -1.4224,0.7366 -0.7366,0.1778 -1.4224,-0.254 z m 5.715,-12.3444 q 0,0.508 -0.3556,0.8636 -0.3302,0.3302 -0.8382,0.3302 -0.508,0 -0.8636,-0.3302 -0.3302,-0.3556 -0.3302,-0.8636 0,-0.508 0.3302,-0.8382 0.3556,-0.3556 0.8636,-0.3556 0.508,0 0.8382,0.3556 0.3556,0.3302 0.3556,0.8382 z"
         style="font-style:normal;font-variant:normal;font-weight:normal;font-stretch:normal;font-size:25.39999962px;line-height:1.25;font-family:'Actonia Hand PERSONAL USE';-inkscape-font-specification:'Actonia Hand PERSONAL USE, Normal';font-variant-ligatures:normal;font-variant-caps:normal;font-variant-numeric:normal;font-feature-settings:normal;text-align:start;letter-spacing:0px;word-spacing:0px;writing-mode:lr-tb;text-anchor:start;fill:#000000;fill-opacity:1;stroke:none;stroke-width:0.26458332"
         id="path4877"
         inkscape:connector-curvature="0" />
      <path
         d="m 50.910569,183.4483 q -1.3716,0 -2.1336,-0.762 -0.5588,-0.508 -0.7874,-1.27 -0.2286,-0.7874 -0.1016,-1.7526 0.1016,-0.8128 0.4318,-1.6764 0.3048,-0.8636 0.8382,-1.7526 0.5842,-0.9398 1.2446,-1.7272 0.6604,-0.7874 1.397,-1.2954 1.143,-0.8636 2.0066,-0.9144 0.889,-0.0762 1.4478,0.127 1.1938,0.4318 1.4732,1.6764 0.1778,0.6858 -0.0254,1.4224 -0.2032,0.7366 -0.762,1.3462 -0.2794,0.3048 -0.6604,0.3302 -0.381,0.0254 -0.6858,-0.254 -0.2794,-0.2794 -0.3302,-0.6604 -0.0254,-0.381 0.254,-0.6858 0.2032,-0.2286 0.3556,-0.4826 0.1524,-0.2794 0.2032,-0.5334 0.0508,-0.254 -0.0254,-0.4572 -0.0762,-0.2032 -0.3302,-0.3048 -0.3556,-0.127 -0.8382,0.1016 -0.4826,0.2286 -1.016,0.7112 -0.5334,0.4826 -1.0922,1.1684 -0.5334,0.6604 -0.9906,1.4224 -0.381,0.6604 -0.635,1.2954 -0.254,0.6096 -0.3556,1.1684 -0.0762,0.5588 -0.0254,0.9906 0.0762,0.4318 0.3302,0.6604 0.4826,0.4572 1.4224,0.3302 0.9398,-0.127 2.032,-0.7112 1.1176,-0.5842 2.2606,-1.5494 1.143,-0.9652 2.0574,-2.1844 0.2286,-0.3302 0.4826,-0.4064 0.254,-0.0762 0.4064,0.0254 0.1778,0.0762 0.2032,0.3302 0.0254,0.2286 -0.2032,0.5588 -0.9144,1.2192 -1.8796,2.2606 -0.9652,1.0414 -1.9812,1.8034 -0.9906,0.762 -2.0066,1.1938 -0.9906,0.4572 -1.9812,0.4572 z"
         style="font-style:normal;font-variant:normal;font-weight:normal;font-stretch:normal;font-size:25.39999962px;line-height:1.25;font-family:'Actonia Hand PERSONAL USE';-inkscape-font-specification:'Actonia Hand PERSONAL USE, Normal';font-variant-ligatures:normal;font-variant-caps:normal;font-variant-numeric:normal;font-feature-settings:normal;text-align:start;letter-spacing:0px;word-spacing:0px;writing-mode:lr-tb;text-anchor:start;fill:#000000;fill-opacity:1;stroke:none;stroke-width:0.26458332"
         id="path4879"
         inkscape:connector-curvature="0" />
      <path
         d="m 62.22071,182.8133 q -1.0414,-1.0414 -0.381,-2.8194 0.2286,-0.635 0.6096,-1.27 0.381,-0.6604 0.7874,-1.3208 0.381,-0.6096 0.7366,-1.2192 0.3556,-0.635 0.5334,-1.143 0.2032,-0.508 0.127,-0.6604 -0.0762,-0.1778 -0.127,-0.2286 -0.0254,-0.0254 -0.0762,-0.0508 -0.0508,-0.0254 -0.1778,0 -0.5334,0.1016 -1.3462,0.762 -0.7874,0.635 -1.7272,1.7018 -0.9144,1.0414 -1.9304,2.4384 -1.016,1.397 -1.9812,2.9972 l -0.5842,0.9398 q -0.2032,0.3556 -0.5588,0.4318 -0.381,0.1016 -0.7366,-0.1016 -0.3556,-0.2032 -0.4318,-0.5842 -0.1016,-0.3556 0.1016,-0.7112 l 0.5334,-0.9144 q 0.5334,-0.889 1.2192,-2.0574 0.6604,-1.1684 1.3716,-2.413 0.7366,-1.27 1.4224,-2.54 0.7112,-1.2954 1.2954,-2.413 0.5842,-1.143 0.9906,-2.0066 0.4064,-0.889 0.5334,-1.3716 0.1016,-0.381 0.4318,-0.5842 0.3556,-0.2286 0.7366,-0.1016 0.381,0.1016 0.5842,0.4318 0.2032,0.3302 0.0762,0.7112 -0.0762,0.3048 -0.381,0.9906 -0.2794,0.6604 -0.6858,1.4732 -0.381,0.8128 -0.8128,1.6764 -0.4318,0.8382 -0.7874,1.4986 0.508,-0.635 1.0668,-1.0668 0.5588,-0.4572 1.0922,-0.6858 0.5588,-0.2286 1.0668,-0.2032 0.508,0 0.9144,0.2794 0.2286,0.1524 0.4318,0.4318 0.2032,0.254 0.3048,0.635 0.1016,0.3556 0.0762,0.8382 -0.0254,0.4826 -0.2286,1.0922 -0.2286,0.6604 -0.635,1.3716 -0.381,0.6858 -0.8128,1.3716 -0.2286,0.3556 -0.508,0.8382 -0.2794,0.4572 -0.508,0.9144 -0.2286,0.4318 -0.3302,0.7874 -0.1016,0.3556 0.0508,0.508 0.254,0.254 0.8382,-0.1016 0.6096,-0.381 1.3208,-1.0414 0.7366,-0.6858 1.4478,-1.524 0.7112,-0.8636 1.2192,-1.5748 0.2286,-0.3048 0.4826,-0.381 0.254,-0.0762 0.4064,0 0.1778,0.0762 0.2032,0.3048 0.0508,0.2286 -0.1524,0.5334 -0.1016,0.127 -0.3556,0.5842 -0.254,0.4318 -0.635,1.016 -0.381,0.5842 -0.889,1.27 -0.4826,0.6604 -1.0668,1.27 -0.5588,0.5842 -1.1938,1.016 -0.6096,0.4318 -1.2446,0.5588 -0.4572,0.1016 -0.9398,-0.1016 -0.4826,-0.1778 -0.7874,-0.4826 z"
         style="font-style:normal;font-variant:normal;font-weight:normal;font-stretch:normal;font-size:25.39999962px;line-height:1.25;font-family:'Actonia Hand PERSONAL USE';-inkscape-font-specification:'Actonia Hand PERSONAL USE, Normal';font-variant-ligatures:normal;font-variant-caps:normal;font-variant-numeric:normal;font-feature-settings:normal;text-align:start;letter-spacing:0px;word-spacing:0px;writing-mode:lr-tb;text-anchor:start;fill:#000000;fill-opacity:1;stroke:none;stroke-width:0.26458332"
         id="path4881"
         inkscape:connector-curvature="0" />
      <path
         d="m 69.639099,183.3975 q -0.635,0 -1.1176,-0.2794 -0.6604,-0.3556 -0.9906,-0.9906 -0.3556,-0.6604 -0.3302,-1.4986 0.0254,-0.9906 0.5334,-2.159 0.508,-1.1684 1.3208,-2.2606 0.8128,-1.1176 1.8542,-2.0574 1.0668,-0.9398 2.1844,-1.4732 1.27,-0.6096 2.413,-0.5588 1.1684,0.0508 2.0574,0.7366 0.3302,0.254 0.381,0.5588 0.0508,0.3048 -0.0762,0.508 -0.127,0.2032 -0.4064,0.2794 -0.2794,0.0508 -0.6096,-0.2032 -0.9652,-0.7366 -2.4892,0.0254 -0.9398,0.4572 -1.8796,1.2954 -0.9144,0.8382 -1.6764,1.8034 -0.7366,0.9652 -1.2192,1.9304 -0.4572,0.9398 -0.4826,1.6002 -0.0254,0.4318 0.1016,0.5842 0.127,0.1524 0.2286,0.2032 0.3048,0.1778 0.889,-0.1524 0.6096,-0.3302 1.3462,-1.0668 0.762,-0.7366 1.6002,-1.8288 0.8636,-1.1176 1.6764,-2.54 0.0508,-0.1016 0.0762,-0.1524 0.0508,-0.0762 0.1016,-0.1524 0.2032,-0.3556 0.5588,-0.4572 0.381,-0.1016 0.7366,0.1016 0.3556,0.2032 0.4572,0.5842 0.1016,0.3556 -0.1016,0.7112 -0.1016,0.1524 -0.1524,0.2794 -0.6604,1.143 -0.9906,2.0066 -0.3048,0.8382 -0.4064,1.4224 -0.1016,0.5588 -0.0508,0.889 0.0508,0.3048 0.1524,0.3556 0.127,0.0762 0.5588,-0.1016 0.4572,-0.2032 1.1938,-0.9398 0.7366,-0.6858 1.4224,-1.5494 0.6858,-0.889 1.2192,-1.6256 0.1778,-0.2794 0.4064,-0.3302 0.254,-0.0762 0.4318,0.0254 0.1778,0.0762 0.2032,0.3048 0.0508,0.2032 -0.127,0.4826 -0.2032,0.254 -0.4826,0.7874 -0.2794,0.508 -0.6604,1.143 -0.381,0.635 -0.8382,1.3208 -0.4572,0.6604 -0.9652,1.2192 -0.508,0.5334 -1.0922,0.8636 -0.5588,0.3556 -1.1684,0.3556 -0.508,0 -1.0922,-0.3302 -0.1524,-0.0762 -0.3302,-0.3556 -0.1524,-0.254 -0.2794,-0.635 -0.127,-0.381 -0.1778,-0.8636 -0.0254,-0.508 0.1016,-1.0922 -0.3048,0.5334 -0.7366,1.1176 -0.4318,0.5588 -0.9652,1.0414 -0.5334,0.4826 -1.1176,0.7874 -0.5842,0.3302 -1.1938,0.3302 z"
         style="font-style:normal;font-variant:normal;font-weight:normal;font-stretch:normal;font-size:25.39999962px;line-height:1.25;font-family:'Actonia Hand PERSONAL USE';-inkscape-font-specification:'Actonia Hand PERSONAL USE, Normal';font-variant-ligatures:normal;font-variant-caps:normal;font-variant-numeric:normal;font-feature-settings:normal;text-align:start;letter-spacing:0px;word-spacing:0px;writing-mode:lr-tb;text-anchor:start;fill:#000000;fill-opacity:1;stroke:none;stroke-width:0.26458332"
         id="path4883"
         inkscape:connector-curvature="0" />
      <path
         d="m 82.117245,183.4229 q -1.4732,0 -2.2352,-0.6858 -0.6858,-0.635 -0.8636,-1.4732 -0.2032,-0.8382 -0.0508,-1.7526 0.1524,-0.9398 0.5588,-1.8542 0.4064,-0.9144 0.9398,-1.7018 0.635,-0.9652 1.4478,-1.778 0.8382,-0.8382 1.7272,-1.3462 0.889,-0.5334 1.7526,-0.635 0.889,-0.127 1.651,0.3048 0.635,0.3556 0.9398,0.9906 0.3048,0.6096 0.2032,1.3716 -0.0508,0.6096 -0.3302,1.1938 -0.2794,0.5842 -0.7112,1.0922 -0.4064,0.508 -0.9652,0.889 -0.5588,0.381 -1.1938,0.5842 -0.2794,0.0762 -0.6858,0.1524 -0.381,0.0508 -0.8382,0.0254 -0.4572,-0.0508 -0.9652,-0.2286 -0.4826,-0.2032 -1.016,-0.5842 -0.254,0.508 -0.4318,1.016 -0.1524,0.4826 -0.2032,0.9144 -0.0508,0.4318 0.0254,0.8128 0.0762,0.3556 0.3048,0.5842 0.5334,0.5334 1.4986,0.4318 0.9652,-0.127 2.0828,-0.7112 1.1176,-0.6096 2.2606,-1.6002 1.143,-0.9906 2.0574,-2.2098 0.2286,-0.3302 0.4826,-0.4064 0.2794,-0.1016 0.4318,0 0.1778,0.0762 0.2032,0.3302 0.0254,0.2286 -0.2286,0.5588 -1.8796,2.5654 -3.7592,4.064 -1.8542,1.4732 -3.4798,1.6256 -0.1524,0.0254 -0.3048,0.0254 -0.1524,0 -0.3048,0 z m 0.4064,-7.0612 q 0.8636,0.7366 1.8796,0.4318 0.6096,-0.1778 1.0668,-0.6096 0.4572,-0.4572 0.7112,-0.9398 0.2794,-0.4826 0.3048,-0.889 0.0508,-0.4064 -0.2032,-0.5588 -0.2286,-0.1524 -0.6858,-0.0254 -0.4318,0.127 -0.9652,0.4826 -0.5334,0.3302 -1.0922,0.889 -0.5588,0.5334 -1.016,1.2192 z"
         style="font-style:normal;font-variant:normal;font-weight:normal;font-stretch:normal;font-size:25.39999962px;line-height:1.25;font-family:'Actonia Hand PERSONAL USE';-inkscape-font-specification:'Actonia Hand PERSONAL USE, Normal';font-variant-ligatures:normal;font-variant-caps:normal;font-variant-numeric:normal;font-feature-settings:normal;text-align:start;letter-spacing:0px;word-spacing:0px;writing-mode:lr-tb;text-anchor:start;fill:#000000;fill-opacity:1;stroke:none;stroke-width:0.26458332"
         id="path4885"
         inkscape:connector-curvature="0" />
      <path
         d="m 89.94521,183.3975 q -0.3048,0 -0.5842,-0.1016 -0.254,-0.0762 -0.5334,-0.2286 -0.254,-0.1524 -0.4826,-0.4064 -0.2286,-0.254 -0.3556,-0.6604 -0.127,-0.4064 -0.127,-0.9398 -0.0254,-0.5588 0.1778,-1.3208 0.4826,-1.778 2.2352,-4.7752 0.2794,-0.4826 0.5842,-0.9652 0.3048,-0.4826 0.6096,-0.9652 0.381,-0.635 0.7874,-1.2954 0.4064,-0.6604 0.7366,-1.27 0.3302,-0.635 0.5588,-1.1684 0.254,-0.5588 0.3048,-0.9652 0.0508,-0.381 0.3556,-0.6096 0.3302,-0.2286 0.7366,-0.1778 0.381,0.0508 0.6096,0.381 0.254,0.3048 0.2032,0.6858 -0.1778,1.143 -0.9652,2.54 -0.762,1.3716 -1.7272,2.8956 -0.2794,0.4572 -0.5842,0.9398 -0.3048,0.4826 -0.5842,0.9398 -0.8128,1.3716 -1.3208,2.4638 -0.4826,1.0668 -0.7112,1.8542 -0.1778,0.6604 -0.1524,0.9144 0.0508,0.254 0.1016,0.2794 0.0508,0.0254 0.1778,0.0254 0.1524,0 0.381,-0.1016 0.254,-0.1016 0.5842,-0.3302 0.3556,-0.2286 0.8128,-0.635 0.4572,-0.4064 0.889,-0.8636 0.4318,-0.4826 0.7874,-0.9144 0.3556,-0.4572 0.635,-0.8128 0.2794,-0.3556 0.4318,-0.5842 0.2032,-0.3048 0.4572,-0.3556 0.254,-0.0762 0.4064,0.0254 0.1778,0.0762 0.2032,0.3048 0.0508,0.2032 -0.1524,0.508 -0.127,0.1524 -0.4318,0.635 -0.2794,0.4826 -0.7112,1.1176 -0.4318,0.635 -0.9652,1.3462 -0.5334,0.6858 -1.1176,1.27 -0.5588,0.5588 -1.143,0.9398 -0.5842,0.381 -1.1176,0.381 z"
         style="font-style:normal;font-variant:normal;font-weight:normal;font-stretch:normal;font-size:25.39999962px;line-height:1.25;font-family:'Actonia Hand PERSONAL USE';-inkscape-font-specification:'Actonia Hand PERSONAL USE, Normal';font-variant-ligatures:normal;font-variant-caps:normal;font-variant-numeric:normal;font-feature-settings:normal;text-align:start;letter-spacing:0px;word-spacing:0px;writing-mode:lr-tb;text-anchor:start;fill:#000000;fill-opacity:1;stroke:none;stroke-width:0.26458332"
         id="path4887"
         inkscape:connector-curvature="0" />
      <path
         inkscape:connector-curvature="0"
         id="path4907"
         style="font-style:normal;font-variant:normal;font-weight:normal;font-stretch:normal;font-size:25.39999962px;line-height:1.25;font-family:'Actonia Hand PERSONAL USE';-inkscape-font-specification:'Actonia Hand PERSONAL USE, Normal';font-variant-ligatures:normal;font-variant-caps:normal;font-variant-numeric:normal;font-feature-settings:normal;text-align:start;letter-spacing:0px;word-spacing:0px;writing-mode:lr-tb;text-anchor:start;fill:#000000;fill-opacity:1;stroke:none;stroke-width:0.26458332"
         d="m 43.680433,165.82338 q -0.1016,-0.6858 -0.5334,-0.635 -0.4318,0.0254 -1.143,0.3556 -1.8796,0.889 -3.4036,2.3622 -1.4986,1.4478 -2.7432,3.0734 -0.6096,0.7874 -1.1938,1.6002 -0.5842,0.8128 -1.0922,1.6764 -0.1778,0.3048 -0.3302,0.6604 -0.1524,0.3302 -0.3302,0.6604 -0.1778,0.3302 -0.4064,0.635 -0.2032,0.3048 -0.508,0.508 -0.2794,0.2032 -0.6096,0.254 -0.3048,0.0508 -0.5588,-0.0254 -0.254,-0.1016 -0.4064,-0.3302 -0.1524,-0.2286 -0.1524,-0.6096 0,-0.4572 0.1778,-0.9144 0.1778,-0.4572 0.4318,-0.9144 0.254,-0.4572 0.5334,-0.8636 0.3048,-0.4318 0.508,-0.8128 0.4826,-0.889 0.8636,-1.8034 0.381,-0.9144 0.7366,-1.8288 0.2032,-0.508 0.508,-1.2192 0.3302,-0.7366 0.4064,-1.397 -0.3556,0.2032 -0.7112,0.4572 -0.3556,0.2286 -0.5842,0.4064 -0.889,0.635 -1.651,1.4224 -0.762,0.762 -1.4478,1.6002 -0.6858,0.8382 -1.3208,1.8034 -0.635,0.9398 -1.1684,1.9812 -0.508,1.016 -0.889,2.1082 -0.3556,1.0668 -0.4572,2.1844 -0.0508,0.508 -0.3556,0.889 -0.3048,0.381 -0.7112,0.5334 -0.4064,0.1778 -0.8636,0.0508 -0.4318,-0.1016 -0.762,-0.5842 -0.2794,-0.4064 -0.254,-0.9144 0.0254,-0.508 0.1778,-1.016 0.1778,-0.508 0.4318,-0.9906 0.254,-0.4826 0.4572,-0.8636 1.0668,-2.032 2.4384,-3.8862 1.3716,-1.8542 2.9464,-3.5306 0.7112,-0.7366 1.4478,-1.4478 0.762,-0.7366 1.6002,-1.3208 0.4826,-0.3556 1.1176,-0.7112 0.635,-0.3556 1.2446,-0.2794 0.8128,0.1016 1.016,0.6858 0.2032,0.5588 0.0508,1.3208 -0.127,0.762 -0.4826,1.5494 -0.3302,0.7874 -0.5842,1.2954 0.9652,-1.2446 2.0574,-2.3368 1.1176,-1.1176 2.4638,-1.9812 0.4826,-0.3048 1.0668,-0.6096 0.5842,-0.3048 1.1938,-0.4826 0.635,-0.2032 1.27,-0.2032 0.635,0 1.1938,0.3048 0.7112,0.4064 0.9906,1.0668 0.2794,0.6604 0.2794,1.4224 0,0.7366 -0.2032,1.4986 -0.2032,0.762 -0.4318,1.3716 -0.6096,1.6764 -1.4224,3.2512 -0.8128,1.5748 -1.7526,3.0734 -0.9144,1.4732 -1.9304,2.921 -1.016,1.4478 -2.032,2.8956 -0.3556,0.508 -0.7112,1.0922 -0.3302,0.5842 -0.8636,0.9398 -0.4572,0.3302 -0.9652,0.1778 -0.4826,-0.127 -0.5588,-0.762 -0.0508,-0.3556 0.127,-0.7366 0.1778,-0.3556 0.4318,-0.7112 0.254,-0.3302 0.5334,-0.635 0.2794,-0.3048 0.4826,-0.5588 0.5842,-0.6858 1.1176,-1.4478 0.5334,-0.7366 1.0414,-1.4732 1.0668,-1.524 1.9812,-3.0988 0.9144,-1.5748 1.7526,-3.2512 0.6096,-1.1684 1.0922,-2.3622 0.4826,-1.1938 0.3556,-2.54 z" />
    </g>
    <g
       id="g4951"
       transform="translate(24.722431,-13.229842)"
       inkscape:label="Stefanie">
      <path
         d="m 46.964601,139.43757 q -0.3048,0.127 -0.5334,0.0762 -0.2286,-0.0762 -0.3048,-0.2286 -0.0762,-0.1778 0,-0.381 0.0762,-0.2286 0.381,-0.4318 0.4318,-0.2794 1.0414,-0.4064 0.635,-0.127 1.3208,-0.2286 0.4064,-0.7366 0.6858,-1.3462 0.2794,-0.635 0.4064,-1.0414 0.1016,-0.381 0.4318,-0.5842 0.3302,-0.2286 0.7112,-0.127 0.381,0.1016 0.5842,0.4572 0.2032,0.3302 0.1016,0.7112 -0.1524,0.5842 -0.5842,1.524 0.2794,-0.0762 0.5588,-0.1778 0.2794,-0.1016 0.5588,-0.2286 0.508,-0.254 0.9144,-0.127 0.4318,0.1016 0.6096,0.4064 0.2032,0.2794 0.1016,0.6604 -0.0762,0.381 -0.5842,0.6604 -0.7366,0.4318 -1.524,0.5334 -0.762,0.0762 -1.5748,0.0254 -0.3556,0.6604 -0.762,1.3462 -0.381,0.6604 -0.7874,1.3208 l -0.7366,1.27 q -1.6256,2.7686 -2.032,4.318 -0.1778,0.6604 -0.1524,0.9144 0.0508,0.254 0.1016,0.2794 0.0508,0.0254 0.1778,0.0254 0.1524,0 0.381,-0.1016 0.2286,-0.1016 0.5588,-0.3302 0.3556,-0.2286 0.8128,-0.635 0.4572,-0.4064 0.889,-0.8636 0.4318,-0.4826 0.7874,-0.9144 0.381,-0.4572 0.6604,-0.8128 0.2794,-0.3556 0.4318,-0.5842 0.2032,-0.3048 0.4572,-0.3556 0.254,-0.0762 0.4064,0.0254 0.1778,0.0762 0.2032,0.3048 0.0508,0.2032 -0.1524,0.508 -0.127,0.1524 -0.4826,0.7366 -0.3302,0.5588 -0.8636,1.2954 -0.5334,0.7112 -1.1684,1.4732 -0.635,0.7366 -1.3462,1.27 -0.7112,0.5588 -1.4224,0.762 -0.6858,0.2032 -1.3462,-0.1778 -0.254,-0.1524 -0.4826,-0.4064 -0.2286,-0.254 -0.3556,-0.6604 -0.127,-0.4064 -0.127,-0.9398 -0.0254,-0.5588 0.1778,-1.3208 0.4826,-1.77799 2.2352,-4.7752 0.2032,-0.3048 0.381,-0.6096 0.1778,-0.3302 0.381,-0.6604 l 1.016,-1.7272 q -0.5842,0.0254 -1.143,0.2794 z"
         style="font-style:normal;font-variant:normal;font-weight:normal;font-stretch:normal;font-size:25.39999962px;line-height:1.25;font-family:'Actonia Hand PERSONAL USE';-inkscape-font-specification:'Actonia Hand PERSONAL USE, Normal';font-variant-ligatures:normal;font-variant-caps:normal;font-variant-numeric:normal;font-feature-settings:normal;text-align:start;letter-spacing:0px;word-spacing:0px;writing-mode:lr-tb;text-anchor:start;fill:#000000;fill-opacity:1;stroke:none;stroke-width:0.26458332"
         id="path4892"
         inkscape:connector-curvature="0" />
      <path
         d="m 53.004642,150.61357 q -1.4732,0 -2.2352,-0.6858 -0.6858,-0.635 -0.8636,-1.4732 -0.2032,-0.8382 -0.0508,-1.7526 0.1524,-0.93979 0.5588,-1.85419 0.4064,-0.91441 0.9398,-1.7018 0.635,-0.96521 1.4478,-1.778 0.8382,-0.8382 1.7272,-1.3462 0.889,-0.5334 1.7526,-0.635 0.889,-0.127 1.651,0.3048 0.635,0.3556 0.9398,0.9906 0.3048,0.6096 0.2032,1.3716 -0.0508,0.6096 -0.3302,1.1938 -0.2794,0.5842 -0.7112,1.0922 -0.4064,0.508 -0.9652,0.889 -0.5588,0.381 -1.1938,0.5842 -0.2794,0.0762 -0.6858,0.1524 -0.381,0.0508 -0.8382,0.0254 -0.4572,-0.0508 -0.9652,-0.2286 -0.4826,-0.2032 -1.016,-0.5842 -0.254,0.508 -0.4318,1.016 -0.1524,0.4826 -0.2032,0.9144 -0.0508,0.4318 0.0254,0.8128 0.0762,0.3556 0.3048,0.5842 0.5334,0.5334 1.4986,0.4318 0.9652,-0.127 2.0828,-0.7112 1.1176,-0.6096 2.2606,-1.6002 1.143,-0.9906 2.0574,-2.2098 0.2286,-0.3302 0.4826,-0.4064 0.2794,-0.1016 0.4318,0 0.1778,0.0762 0.2032,0.3302 0.0254,0.2286 -0.2286,0.5588 -1.8796,2.5654 -3.7592,4.064 -1.8542,1.4732 -3.4798,1.6256 -0.1524,0.0254 -0.3048,0.0254 -0.1524,0 -0.3048,-1e-5 z m 0.4064,-7.0612 q 0.8636,0.7366 1.8796,0.4318 0.6096,-0.1778 1.0668,-0.6096 0.4572,-0.4572 0.7112,-0.9398 0.2794,-0.4826 0.3048,-0.889 0.0508,-0.4064 -0.2032,-0.5588 -0.2286,-0.1524 -0.6858,-0.0254 -0.4318,0.12701 -0.9652,0.4826 -0.5334,0.3302 -1.0922,0.889 -0.5588,0.5334 -1.016,1.2192 z"
         style="font-style:normal;font-variant:normal;font-weight:normal;font-stretch:normal;font-size:25.39999962px;line-height:1.25;font-family:'Actonia Hand PERSONAL USE';-inkscape-font-specification:'Actonia Hand PERSONAL USE, Normal';font-variant-ligatures:normal;font-variant-caps:normal;font-variant-numeric:normal;font-feature-settings:normal;text-align:start;letter-spacing:0px;word-spacing:0px;writing-mode:lr-tb;text-anchor:start;fill:#000000;fill-opacity:1;stroke:none;stroke-width:0.26458332"
         id="path4894"
         inkscape:connector-curvature="0" />
      <path
         d="m 58.318003,154.11877 q -0.5588,0 -0.9144,-0.2286 -0.762,-0.4064 -0.9906,-1.27 -0.1778,-0.7112 0.0762,-1.651 0.254,-0.9398 0.8636,-2.1336 0.5842,-1.1938 1.4986,-2.667 0.9144,-1.4986 2.0828,-3.302 0.6858,-1.0668 1.3462,-2.1082 0.6858,-1.0414 1.2446,-2.0066 0.5842,-0.9906 0.9906,-1.8288 0.4318,-0.8382 0.5842,-1.4986 0.1016,-0.381 0.4318,-0.5842 0.3556,-0.2032 0.7366,-0.1016 0.381,0.127 0.5842,0.4572 0.2032,0.3302 0.1016,0.7112 -0.3302,1.27 -1.27,2.921 -0.9398,1.651 -2.1336,3.5306 l 0.1524,0.2032 q 0.6096,0.381 1.2954,0.5588 0.6858,0.1778 1.397,0.1016 0.6604,-0.0508 1.1938,-0.3302 0.5334,-0.3048 0.889,-0.762 0.1778,-0.254 0.4064,-0.3048 0.2286,-0.0508 0.381,0.0508 0.1778,0.0762 0.2286,0.3048 0.0508,0.2032 -0.127,0.4572 -0.9398,1.3716 -2.4638,1.905 -1.4986,0.508 -3.2258,0.1016 0.127,0.4826 0.1016,1.143 0,0.6604 -0.1524,1.3716 -0.127,0.6858 -0.3556,1.397 -0.2286,0.7112 -0.5588,1.2954 -0.6858,1.27 -1.397,2.2352 -0.7112,0.9652 -1.524,1.524 -0.4318,0.2794 -0.7874,0.381 -0.381,0.127 -0.6858,0.127 z m 4.064,-9.9822 q -0.8382,1.2954 -1.651,2.5654 -0.8128,1.27001 -1.397,2.41301 -0.4318,0.78739 -0.635,1.32079 -0.2286,0.5334 -0.3302,0.88901 -0.1016,0.3556 -0.1016,0.55879 -0.0254,0.20321 0,0.27941 0.0254,0.0508 0.0508,0.0508 0.0254,0 0.1778,-0.0508 0.1524,-0.0508 0.4064,-0.254 0.2286,-0.1778 0.5588,-0.5334 0.3048,-0.3556 0.7112,-0.9398 0.6604,-0.9652 1.1938,-2.1336 0.5334,-1.1938 0.8128,-2.2606 0.2032,-0.7112 0.2286,-1.1684 0.0254,-0.4572 -0.0254,-0.73661 z"
         style="font-style:normal;font-variant:normal;font-weight:normal;font-stretch:normal;font-size:25.39999962px;line-height:1.25;font-family:'Actonia Hand PERSONAL USE';-inkscape-font-specification:'Actonia Hand PERSONAL USE, Normal';font-variant-ligatures:normal;font-variant-caps:normal;font-variant-numeric:normal;font-feature-settings:normal;text-align:start;letter-spacing:0px;word-spacing:0px;writing-mode:lr-tb;text-anchor:start;fill:#000000;fill-opacity:1;stroke:none;stroke-width:0.26458332"
         id="path4896"
         inkscape:connector-curvature="0" />
      <path
         d="m 68.010089,150.58817 q -0.635,0 -1.1176,-0.2794 -0.6604,-0.3556 -0.9906,-0.9906 -0.3556,-0.6604 -0.3302,-1.4986 0.0254,-0.9906 0.5334,-2.159 0.508,-1.1684 1.3208,-2.2606 0.8128,-1.1176 1.8542,-2.0574 1.0668,-0.9398 2.1844,-1.4732 1.27,-0.6096 2.413,-0.5588 1.1684,0.0508 2.0574,0.7366 0.3302,0.254 0.381,0.5588 0.0508,0.3048 -0.0762,0.508 -0.127,0.2032 -0.4064,0.2794 -0.2794,0.0508 -0.6096,-0.2032 -0.9652,-0.7366 -2.4892,0.0254 -0.9398,0.4572 -1.8796,1.2954 -0.9144,0.8382 -1.6764,1.8034 -0.7366,0.9652 -1.2192,1.9304 -0.4572,0.9398 -0.4826,1.6002 -0.0254,0.4318 0.1016,0.5842 0.127,0.1524 0.2286,0.2032 0.3048,0.1778 0.889,-0.1524 0.6096,-0.3302 1.3462,-1.0668 0.762,-0.7366 1.6002,-1.8288 0.8636,-1.1176 1.6764,-2.54 0.0508,-0.1016 0.0762,-0.1524 0.0508,-0.0762 0.1016,-0.1524 0.2032,-0.3556 0.5588,-0.4572 0.381,-0.1016 0.7366,0.1016 0.3556,0.2032 0.4572,0.5842 0.1016,0.3556 -0.1016,0.7112 -0.1016,0.1524 -0.1524,0.2794 -0.6604,1.143 -0.9906,2.0066 -0.3048,0.8382 -0.4064,1.4224 -0.1016,0.5588 -0.0508,0.88901 0.0508,0.3048 0.1524,0.3556 0.127,0.0762 0.5588,-0.1016 0.4572,-0.2032 1.1938,-0.9398 0.7366,-0.6858 1.4224,-1.5494 0.6858,-0.889 1.2192,-1.6256 0.1778,-0.2794 0.4064,-0.3302 0.254,-0.0762 0.4318,0.0254 0.1778,0.0762 0.2032,0.3048 0.0508,0.2032 -0.127,0.4826 -0.2032,0.254 -0.4826,0.7874 -0.2794,0.508 -0.6604,1.143 -0.381,0.635 -0.8382,1.3208 -0.4572,0.6604 -0.9652,1.2192 -0.508,0.5334 -1.0922,0.8636 -0.5588,0.3556 -1.1684,0.3556 -0.508,0 -1.0922,-0.3302 -0.1524,-0.0762 -0.3302,-0.3556 -0.1524,-0.254 -0.2794,-0.635 -0.127,-0.381 -0.1778,-0.8636 -0.0254,-0.508 0.1016,-1.0922 -0.3048,0.5334 -0.7366,1.1176 -0.4318,0.5588 -0.9652,1.0414 -0.5334,0.4826 -1.1176,0.7874 -0.5842,0.3302 -1.1938,0.33019 z"
         style="font-style:normal;font-variant:normal;font-weight:normal;font-stretch:normal;font-size:25.39999962px;line-height:1.25;font-family:'Actonia Hand PERSONAL USE';-inkscape-font-specification:'Actonia Hand PERSONAL USE, Normal';font-variant-ligatures:normal;font-variant-caps:normal;font-variant-numeric:normal;font-feature-settings:normal;text-align:start;letter-spacing:0px;word-spacing:0px;writing-mode:lr-tb;text-anchor:start;fill:#000000;fill-opacity:1;stroke:none;stroke-width:0.26458332"
         id="path4898"
         inkscape:connector-curvature="0" />
      <path
         d="m 83.866435,150.61357 q -0.8636,0 -1.4732,-0.6096 -1.0414,-1.0414 -0.381,-2.8194 0.2286,-0.635 0.6096,-1.27 0.381,-0.6604 0.7874,-1.3208 0.381,-0.6096 0.7366,-1.2192 0.3556,-0.635 0.5334,-1.143 0.2032,-0.508 0.127,-0.6604 -0.0762,-0.1778 -0.127,-0.2286 -0.0508,-0.0508 -0.0762,-0.0508 -0.0254,-0.0254 -0.1524,0 -0.381,0.0762 -1.0414,0.5842 -0.635,0.508 -1.524,1.5494 -0.889,1.0414 -2.032,2.6924 -1.1176,1.6256 -2.4638,3.937 -0.2032,0.3556 -0.5588,0.4572 -0.381,0.1016 -0.7112,-0.1016 -0.3556,-0.1778 -0.4572,-0.5588 -0.127,-0.3556 0.0508,-0.7112 l 4.6228,-9.144 q 0.1778,-0.3556 0.5334,-0.4572 0.381,-0.1016 0.7366,0.0508 0.5842,0.20321 0.6858,0.73661 0.127,0.5334 -0.1524,1.0414 0.9652,-1.143 1.9812,-1.5748 1.016,-0.43181 1.778,0.0762 0.2286,0.1524 0.4318,0.4318 0.2032,0.254 0.3048,0.635 0.1016,0.3556 0.0762,0.8382 -0.0254,0.48259 -0.2286,1.09219 -0.2286,0.66041 -0.635,1.3716 -0.4064,0.68581 -0.8382,1.37161 -0.2032,0.3556 -0.4826,0.8382 -0.2794,0.4572 -0.508,0.9144 -0.2286,0.4318 -0.3302,0.78739 -0.1016,0.35561 0.0508,0.50801 0.0254,0.0254 0.0508,0.0508 0.0254,0 0.1524,0 0.3556,-0.0254 0.889,-0.381 0.5588,-0.3556 1.1938,-0.9398 0.635,-0.5842 1.2954,-1.3462 0.6604,-0.762 1.2446,-1.6256 0.2286,-0.3302 0.4826,-0.4318 0.2794,-0.1016 0.4318,0 0.1778,0.0762 0.2032,0.33019 0.0254,0.22861 -0.2032,0.5588 -0.0762,0.12701 -0.3302,0.58421 -0.254,0.4572 -0.635,1.0668 -0.381,0.6096 -0.889,1.32079 -0.4826,0.6858 -1.0668,1.27001 -0.5588,0.5842 -1.1938,0.9906 -0.6096,0.4318 -1.2446,0.48259 -0.0762,0.0254 -0.254,0.0254 z"
         style="font-style:normal;font-variant:normal;font-weight:normal;font-stretch:normal;font-size:25.39999962px;line-height:1.25;font-family:'Actonia Hand PERSONAL USE';-inkscape-font-specification:'Actonia Hand PERSONAL USE, Normal';font-variant-ligatures:normal;font-variant-caps:normal;font-variant-numeric:normal;font-feature-settings:normal;text-align:start;letter-spacing:0px;word-spacing:0px;writing-mode:lr-tb;text-anchor:start;fill:#000000;fill-opacity:1;stroke:none;stroke-width:0.26458332"
         id="path4900"
         inkscape:connector-curvature="0" />
      <path
         d="m 88.339614,150.25797 q -0.2794,-0.1778 -0.5334,-0.4826 -0.2794,-0.2794 -0.4318,-0.7112 -0.1524,-0.4318 -0.127,-1.01599 0,-0.6096 0.254,-1.397 0.2794,-0.8636 0.7874,-1.778 0.508,-0.9144 0.9906,-1.7526 0.3556,-0.5588 0.7112,-1.1938 0.3556,-0.635 0.381,-0.88901 0,-0.40639 0.2794,-0.6858 0.2794,-0.2794 0.6604,-0.2794 0.4064,0 0.6858,0.2794 0.2794,0.254 0.3048,0.66041 0,0.55879 -0.3556,1.27 -0.3556,0.7112 -1.016,1.8288 -0.3048,0.5334 -0.7112,1.2446 -0.4064,0.6858 -0.7112,1.3462 -0.2794,0.6604 -0.381,1.2192 -0.0762,0.5334 0.2286,0.7112 0.0508,0.0254 0.1778,0.0254 0.1524,0 0.381,-0.1016 0.2286,-0.1016 0.5588,-0.3302 0.3556,-0.2286 0.8128,-0.635 0.4572,-0.4064 0.889,-0.8636 0.4318,-0.4826 0.7874,-0.9144 0.381,-0.4572 0.6604,-0.8128 0.2794,-0.3556 0.4318,-0.5842 0.2286,-0.3048 0.4572,-0.381 0.254,-0.0762 0.4318,0.0254 0.1778,0.0762 0.2032,0.3048 0.0508,0.2286 -0.1778,0.5334 -0.127,0.1524 -0.4572,0.7366 -0.3302,0.5842 -0.8382,1.3208 -0.508,0.7366 -1.143,1.524 -0.635,0.762 -1.3462,1.2954 -0.6858,0.5588 -1.4224,0.7366 -0.7366,0.1778 -1.4224,-0.25401 z m 5.715,-12.3444 q 0,0.508 -0.3556,0.8636 -0.3302,0.3302 -0.8382,0.3302 -0.508,0 -0.8636,-0.3302 -0.3302,-0.3556 -0.3302,-0.8636 0,-0.508 0.3302,-0.8382 0.3556,-0.3556 0.8636,-0.3556 0.508,0 0.8382,0.3556 0.3556,0.3302 0.3556,0.8382 z"
         style="font-style:normal;font-variant:normal;font-weight:normal;font-stretch:normal;font-size:25.39999962px;line-height:1.25;font-family:'Actonia Hand PERSONAL USE';-inkscape-font-specification:'Actonia Hand PERSONAL USE, Normal';font-variant-ligatures:normal;font-variant-caps:normal;font-variant-numeric:normal;font-feature-settings:normal;text-align:start;letter-spacing:0px;word-spacing:0px;writing-mode:lr-tb;text-anchor:start;fill:#000000;fill-opacity:1;stroke:none;stroke-width:0.26458332"
         id="path4902"
         inkscape:connector-curvature="0" />
      <path
         d="m 96.462452,150.61357 q -1.4732,0 -2.2352,-0.6858 -0.6858,-0.635 -0.8636,-1.4732 -0.2032,-0.8382 -0.0508,-1.7526 0.1524,-0.93979 0.5588,-1.85419 0.4064,-0.91441 0.9398,-1.7018 0.635,-0.96521 1.4478,-1.778 0.8382,-0.8382 1.7272,-1.3462 0.889,-0.5334 1.7526,-0.635 0.888998,-0.127 1.650998,0.3048 0.635,0.3556 0.9398,0.9906 0.3048,0.6096 0.2032,1.3716 -0.0508,0.6096 -0.3302,1.1938 -0.2794,0.5842 -0.7112,1.0922 -0.4064,0.508 -0.9652,0.889 -0.558798,0.381 -1.193798,0.5842 -0.2794,0.0762 -0.6858,0.1524 -0.381,0.0508 -0.8382,0.0254 -0.4572,-0.0508 -0.9652,-0.2286 -0.4826,-0.2032 -1.016,-0.5842 -0.254,0.508 -0.4318,1.016 -0.1524,0.4826 -0.2032,0.9144 -0.0508,0.4318 0.0254,0.8128 0.0762,0.3556 0.3048,0.5842 0.5334,0.5334 1.4986,0.4318 0.9652,-0.127 2.0828,-0.7112 1.117598,-0.6096 2.260598,-1.6002 1.143,-0.9906 2.0574,-2.2098 0.2286,-0.3302 0.4826,-0.4064 0.2794,-0.1016 0.4318,0 0.1778,0.0762 0.2032,0.3302 0.0254,0.2286 -0.2286,0.5588 -1.8796,2.5654 -3.7592,4.064 -1.854198,1.4732 -3.479798,1.6256 -0.1524,0.0254 -0.3048,0.0254 -0.1524,0 -0.3048,-1e-5 z m 0.4064,-7.0612 q 0.8636,0.7366 1.8796,0.4318 0.6096,-0.1778 1.0668,-0.6096 0.457198,-0.4572 0.711198,-0.9398 0.2794,-0.4826 0.3048,-0.889 0.0508,-0.4064 -0.2032,-0.5588 -0.2286,-0.1524 -0.685798,-0.0254 -0.4318,0.12701 -0.9652,0.4826 -0.5334,0.3302 -1.0922,0.889 -0.5588,0.5334 -1.016,1.2192 z"
         style="font-style:normal;font-variant:normal;font-weight:normal;font-stretch:normal;font-size:25.39999962px;line-height:1.25;font-family:'Actonia Hand PERSONAL USE';-inkscape-font-specification:'Actonia Hand PERSONAL USE, Normal';font-variant-ligatures:normal;font-variant-caps:normal;font-variant-numeric:normal;font-feature-settings:normal;text-align:start;letter-spacing:0px;word-spacing:0px;writing-mode:lr-tb;text-anchor:start;fill:#000000;fill-opacity:1;stroke:none;stroke-width:0.26458332"
         id="path4904"
         inkscape:connector-curvature="0" />
      <path
         inkscape:connector-curvature="0"
         id="path4923"
         style="font-style:normal;font-variant:normal;font-weight:normal;font-stretch:normal;font-size:25.39999962px;line-height:1.25;font-family:'Actonia Hand PERSONAL USE';-inkscape-font-specification:'Actonia Hand PERSONAL USE, Normal';font-variant-ligatures:normal;font-variant-caps:normal;font-variant-numeric:normal;font-feature-settings:normal;text-align:start;letter-spacing:0px;word-spacing:0px;writing-mode:lr-tb;text-anchor:start;fill:#000000;fill-opacity:1;stroke:none;stroke-width:0.26458332"
         d="m 40.115994,136.75416 q 0.8382,0.5334 1.6002,1.1684 0.762,0.6096 1.27,1.4732 0.9652,1.6002 0.889,3.4544 -0.0762,1.8542 -1.016,3.429 -0.889,1.4478 -2.3368,2.413 -1.4478,0.9906 -3.175,1.4224 -1.7018,0.4572 -3.4798,0.381 -1.778,-0.0762 -3.302,-0.762 -1.524,-0.6604 -2.6416,-1.9304 -1.0922,-1.27 -1.4224,-3.2004 -0.2794,-1.651 0.2286,-3.048 0.5334,-1.397 1.6002,-2.3622 1.0668,-0.9906 2.54,-1.4478 1.4732,-0.4826 3.048,-0.254 0.6858,0.1016 1.3716,0.4064 0.7112,0.2794 1.0414,0.9906 0.127,0.2794 0.127,0.6096 0,0.3048 -0.127,0.5842 -0.1016,0.2794 -0.3302,0.4826 -0.2286,0.2032 -0.5588,0.2794 -0.4318,0.0508 -0.7112,-0.127 -0.2794,-0.1778 -0.6096,-0.381 -0.4318,-0.254 -0.8636,-0.4318 -0.4318,-0.1778 -0.9144,-0.254 -0.762,-0.127 -1.397,0.0508 -0.6096,0.1524 -1.27,0.6096 -0.508,0.3556 -0.9144,0.9398 -0.4064,0.5842 -0.508,1.5748 -0.0762,1.0668 0.2032,1.9558 0.2794,0.889 0.8128,1.5748 0.5588,0.7112 1.3462,1.1938 0.7874,0.508 1.7018,0.762 1.143,0.3302 2.3368,0.3302 1.1938,0 2.3114,-0.3048 1.143,-0.3048 2.1336,-0.9398 1.016,-0.6096 1.7526,-1.5494 0.889,-1.1938 1.0922,-2.5908 0.2032,-1.4224 -0.5334,-2.7432 -0.3302,-0.6096 -0.8636,-1.0668 -0.508,-0.4572 -1.0922,-0.8382 -0.5842,-0.4064 -1.2192,-0.762 -0.6096,-0.3556 -1.143,-0.7874 -0.5842,-0.4826 -1.143,-1.0668 -0.5334,-0.6096 -0.635,-1.397 -0.0508,-0.4064 0.0508,-0.8128 0.127,-0.4318 0.3556,-0.7874 0.2286,-0.3556 0.5334,-0.635 0.3302,-0.3048 0.6858,-0.508 0.9144,-0.508 1.8796,-0.381 0.9652,0.127 1.8796,0.635 0.9144,0.508 1.7018,1.2446 0.7874,0.7366 1.3208,1.4224 0.2794,0.3556 0.127,0.7366 -0.127,0.3556 -0.5588,0.508 -0.508,0.1524 -0.8636,-0.0762 -0.3302,-0.2286 -0.6604,-0.5842 -0.2794,-0.3048 -0.762,-0.7366 -0.4826,-0.4318 -1.0668,-0.762 -0.5588,-0.3556 -1.143,-0.4572 -0.5588,-0.127 -1.016,0.2032 -0.127,0.0762 -0.254,0.2286 -0.1016,0.1524 -0.1524,0.3556 -0.0254,0.2032 0.0254,0.4572 0.0508,0.254 0.254,0.5334 0.127,0.2032 0.4318,0.4064 0.3048,0.2032 0.6604,0.4064 0.3556,0.2032 0.7112,0.4064 0.381,0.1778 0.6604,0.3556 z" />
    </g>
    <g
       aria-label="27.05.2022"
       style="font-style:normal;font-variant:normal;font-weight:normal;font-stretch:normal;font-size:10.58333302px;line-height:1.25;font-family:'Tempus Sans ITC';-inkscape-font-specification:'Tempus Sans ITC';letter-spacing:0px;word-spacing:0px;fill:#000000;fill-opacity:1;stroke:none;stroke-width:0.26458332"
       id="text4996"
       inkscape:label="27.05.2022">
      <path
         d="m 123.15328,154.59814 q 0,0.0699 -0.007,0.21704 -0.007,0.1447 -0.007,0.21704 0,0.0531 -0.0796,0.0531 0.0265,0 -0.2291,-0.0193 -0.25321,-0.0193 -0.75482,-0.0193 -0.17122,0 -0.51849,0.007 -0.34485,0.007 -0.51848,0.007 -0.0555,0 -0.0699,-0.0482 l -0.0627,-0.34726 q 0,-0.0289 0.16881,-0.0579 0.1881,-0.0338 0.23633,-0.0748 0.33521,-0.2918 0.65836,-0.68971 0.4172,-0.51849 0.4172,-0.78617 0,-0.21945 -0.17845,-0.36173 -0.1664,-0.13264 -0.38826,-0.13264 -0.21463,0 -0.42926,0.0844 -0.14711,0.0579 -0.29421,0.15434 -0.12541,0.0844 -0.12541,0.0844 -0.0193,0 -0.0265,-0.002 -0.0241,-0.0121 -0.0289,-0.0844 -0.002,-0.0579 -0.0145,-0.1664 -0.0506,-0.21945 -0.0506,-0.17845 0,-0.0193 0.0362,-0.0458 0.19292,-0.14711 0.49678,-0.24116 0.2918,-0.0892 0.54984,-0.0892 0.44373,0 0.7307,0.2074 0.32557,0.23392 0.32557,0.66318 0,0.46784 -0.84888,1.31189 -0.0941,0.11093 -0.29662,0.31592 0.0627,0.005 0.15675,0.005 0.47267,0 1.0828,-0.0579 l 0.0193,-0.002 q 0.0506,0 0.0506,0.0772 z"
         style="font-style:normal;font-variant:normal;font-weight:normal;font-stretch:normal;font-size:4.93888903px;font-family:'Berlin Sans FB';-inkscape-font-specification:'Berlin Sans FB, Normal';font-variant-ligatures:normal;font-variant-caps:normal;font-variant-numeric:normal;font-feature-settings:normal;text-align:start;writing-mode:lr-tb;text-anchor:start;stroke-width:0.26458332"
         id="path4999"
         inkscape:connector-curvature="0" />
      <path
         d="m 125.32128,152.37227 q 0,0.0796 -0.005,0.1061 0,0.0145 -0.0989,0.14229 -0.32315,0.43408 -0.56189,1.14308 -0.23151,0.68488 -0.30145,1.18408 -0.007,0.0579 -0.0169,0.0772 -0.0169,0.0338 -0.0627,0.0458 -0.0675,0.0193 -0.28456,0.0193 -0.22428,0 -0.27733,-0.0193 -0.0289,-0.01 -0.0289,-0.0579 0,-0.29903 0.24356,-0.88987 0.16158,-0.39067 0.45338,-0.96221 0.24357,-0.47749 0.24357,-0.49196 0,-0.0362 -0.0627,-0.0362 -0.2074,0 -0.6246,0.0338 -0.4172,0.0338 -0.62459,0.0338 -0.0651,0 -0.0651,-0.0434 0,-0.0458 0.0145,-0.12058 0.0193,-0.0989 0.0217,-0.12299 0.005,-0.0434 0.005,-0.26527 0,-0.0506 0.0675,-0.0506 0.16158,0 0.54984,0.0314 0.2508,0.0193 1.32395,0.0193 0.0916,0 0.0916,0.22428 z"
         style="font-style:normal;font-variant:normal;font-weight:normal;font-stretch:normal;font-size:4.93888903px;font-family:'Berlin Sans FB';-inkscape-font-specification:'Berlin Sans FB, Normal';font-variant-ligatures:normal;font-variant-caps:normal;font-variant-numeric:normal;font-feature-settings:normal;text-align:start;writing-mode:lr-tb;text-anchor:start;stroke-width:0.26458332"
         id="path5001"
         inkscape:connector-curvature="0" />
      <path
         d="m 126.29314,154.68737 q 0,0.15916 -0.10852,0.27974 -0.10611,0.11817 -0.26286,0.11817 -0.15675,0 -0.26286,-0.12299 -0.10129,-0.11576 -0.10129,-0.27492 0,-0.16158 0.1037,-0.27492 0.1037,-0.11575 0.26045,-0.11575 0.15916,0 0.26527,0.11575 0.10611,0.11576 0.10611,0.27492 z"
         style="font-style:normal;font-variant:normal;font-weight:normal;font-stretch:normal;font-size:4.93888903px;font-family:'Berlin Sans FB';-inkscape-font-specification:'Berlin Sans FB, Normal';font-variant-ligatures:normal;font-variant-caps:normal;font-variant-numeric:normal;font-feature-settings:normal;text-align:start;writing-mode:lr-tb;text-anchor:start;stroke-width:0.26458332"
         id="path5003"
         inkscape:connector-curvature="0" />
      <path
         d="m 129.26419,153.59011 q 0,0.60771 -0.35932,1.04662 -0.38344,0.47025 -0.9791,0.47025 -0.59324,0 -0.97668,-0.47025 -0.36174,-0.44132 -0.36174,-1.04662 0,-0.60531 0.36174,-1.0418 0.38344,-0.46543 0.97668,-0.46543 0.59566,0 0.9791,0.46302 0.35932,0.43649 0.35932,1.04421 z m -0.56672,0 q 0,-0.37138 -0.19533,-0.64148 -0.21704,-0.29662 -0.57637,-0.29662 -0.35932,0 -0.57395,0.29662 -0.19051,0.26527 -0.19051,0.64148 0,0.37138 0.19292,0.64389 0.21704,0.30385 0.57154,0.30385 0.34245,0 0.56913,-0.31109 0.20257,-0.28215 0.20257,-0.63665 z"
         style="font-style:normal;font-variant:normal;font-weight:normal;font-stretch:normal;font-size:4.93888903px;font-family:'Berlin Sans FB';-inkscape-font-specification:'Berlin Sans FB, Normal';font-variant-ligatures:normal;font-variant-caps:normal;font-variant-numeric:normal;font-feature-settings:normal;text-align:start;writing-mode:lr-tb;text-anchor:start;stroke-width:0.26458332"
         id="path5005"
         inkscape:connector-curvature="0" />
      <path
         d="m 131.56483,154.06277 q 0,0.52331 -0.34003,0.79341 -0.3111,0.2508 -0.84646,0.2508 -0.17122,0 -0.50884,-0.0627 -0.41962,-0.0772 -0.41962,-0.1664 0,-0.0844 0.0362,-0.27733 0.041,-0.22186 0.0796,-0.22186 -0.0338,0 0.21463,0.13264 0.2508,0.13022 0.47025,0.13022 0.30145,0 0.48955,-0.12058 0.22187,-0.14469 0.22187,-0.42685 0,-0.47266 -0.69454,-0.47266 -0.0916,0 -0.27009,0.0265 -0.17605,0.0265 -0.24598,0.0265 -0.0531,0 -0.0675,-0.0314 -0.005,-0.0145 -0.005,-0.0434 -0.002,-0.0506 0.002,-0.14228 0.002,-0.1037 0.002,-0.14228 0,-0.17605 -0.005,-0.52813 -0.005,-0.35451 -0.005,-0.53055 0,-0.0338 0.0531,-0.082 0.0555,-0.0506 0.0892,-0.0506 0.1254,0 0.37862,0.0121 0.25321,0.01 0.38103,0.01 0.12057,0 0.36414,-0.0121 0.24598,-0.0121 0.36897,-0.0121 0.0555,0 0.0555,0.0458 0,0.0506 -0.0241,0.18569 -0.0217,0.13505 -0.0217,0.20499 0,0.0265 -0.0386,0.0555 -0.0362,0.0289 -0.0651,0.0289 -0.1254,0 -0.3762,-0.0145 -0.2484,-0.0145 -0.3738,-0.0145 -0.17845,0 -0.3135,0.007 0,0.19775 -0.0241,0.60771 0.0724,0 0.21704,-0.0169 0.14711,-0.0169 0.22187,-0.0169 0.44373,0 0.70659,0.20498 0.2918,0.2291 0.2918,0.66318 z"
         style="font-style:normal;font-variant:normal;font-weight:normal;font-stretch:normal;font-size:4.93888903px;font-family:'Berlin Sans FB';-inkscape-font-specification:'Berlin Sans FB, Normal';font-variant-ligatures:normal;font-variant-caps:normal;font-variant-numeric:normal;font-feature-settings:normal;text-align:start;writing-mode:lr-tb;text-anchor:start;stroke-width:0.26458332"
         id="path5007"
         inkscape:connector-curvature="0" />
      <path
         d="m 132.65968,154.68737 q 0,0.15916 -0.10852,0.27974 -0.10611,0.11817 -0.26286,0.11817 -0.15675,0 -0.26286,-0.12299 -0.10129,-0.11576 -0.10129,-0.27492 0,-0.16158 0.1037,-0.27492 0.1037,-0.11575 0.26045,-0.11575 0.15916,0 0.26527,0.11575 0.10611,0.11576 0.10611,0.27492 z"
         style="font-style:normal;font-variant:normal;font-weight:normal;font-stretch:normal;font-size:4.93888903px;font-family:'Berlin Sans FB';-inkscape-font-specification:'Berlin Sans FB, Normal';font-variant-ligatures:normal;font-variant-caps:normal;font-variant-numeric:normal;font-feature-settings:normal;text-align:start;writing-mode:lr-tb;text-anchor:start;stroke-width:0.26458332"
         id="path5009"
         inkscape:connector-curvature="0" />
      <path
         d="m 135.15324,154.59814 q 0,0.0699 -0.007,0.21704 -0.007,0.1447 -0.007,0.21704 0,0.0531 -0.0796,0.0531 0.0265,0 -0.2291,-0.0193 -0.25322,-0.0193 -0.75482,-0.0193 -0.17122,0 -0.51849,0.007 -0.34485,0.007 -0.51849,0.007 -0.0555,0 -0.0699,-0.0482 l -0.0627,-0.34726 q 0,-0.0289 0.16881,-0.0579 0.1881,-0.0338 0.23633,-0.0748 0.33521,-0.2918 0.65836,-0.68971 0.4172,-0.51849 0.4172,-0.78617 0,-0.21945 -0.17846,-0.36173 -0.16639,-0.13264 -0.38826,-0.13264 -0.21463,0 -0.42926,0.0844 -0.1471,0.0579 -0.29421,0.15434 -0.1254,0.0844 -0.1254,0.0844 -0.0193,0 -0.0265,-0.002 -0.0241,-0.0121 -0.0289,-0.0844 -0.002,-0.0579 -0.0145,-0.1664 -0.0506,-0.21945 -0.0506,-0.17845 0,-0.0193 0.0362,-0.0458 0.19292,-0.14711 0.49678,-0.24116 0.2918,-0.0892 0.54984,-0.0892 0.44372,0 0.7307,0.2074 0.32556,0.23392 0.32556,0.66318 0,0.46784 -0.84887,1.31189 -0.094,0.11093 -0.29662,0.31592 0.0627,0.005 0.15675,0.005 0.47267,0 1.08279,-0.0579 l 0.0193,-0.002 q 0.0506,0 0.0506,0.0772 z"
         style="font-style:normal;font-variant:normal;font-weight:normal;font-stretch:normal;font-size:4.93888903px;font-family:'Berlin Sans FB';-inkscape-font-specification:'Berlin Sans FB, Normal';font-variant-ligatures:normal;font-variant-caps:normal;font-variant-numeric:normal;font-feature-settings:normal;text-align:start;writing-mode:lr-tb;text-anchor:start;stroke-width:0.26458332"
         id="path5011"
         inkscape:connector-curvature="0" />
      <path
         d="m 138.023,153.59011 q 0,0.60771 -0.35932,1.04662 -0.38344,0.47025 -0.9791,0.47025 -0.59324,0 -0.97668,-0.47025 -0.36174,-0.44132 -0.36174,-1.04662 0,-0.60531 0.36174,-1.0418 0.38344,-0.46543 0.97668,-0.46543 0.59566,0 0.9791,0.46302 0.35932,0.43649 0.35932,1.04421 z m -0.56672,0 q 0,-0.37138 -0.19533,-0.64148 -0.21704,-0.29662 -0.57637,-0.29662 -0.35932,0 -0.57395,0.29662 -0.19051,0.26527 -0.19051,0.64148 0,0.37138 0.19292,0.64389 0.21704,0.30385 0.57154,0.30385 0.34245,0 0.56913,-0.31109 0.20257,-0.28215 0.20257,-0.63665 z"
         style="font-style:normal;font-variant:normal;font-weight:normal;font-stretch:normal;font-size:4.93888903px;font-family:'Berlin Sans FB';-inkscape-font-specification:'Berlin Sans FB, Normal';font-variant-ligatures:normal;font-variant-caps:normal;font-variant-numeric:normal;font-feature-settings:normal;text-align:start;writing-mode:lr-tb;text-anchor:start;stroke-width:0.26458332"
         id="path5013"
         inkscape:connector-curvature="0" />
      <path
         d="m 140.49727,154.59814 q 0,0.0699 -0.007,0.21704 -0.007,0.1447 -0.007,0.21704 0,0.0531 -0.0796,0.0531 0.0265,0 -0.2291,-0.0193 -0.25321,-0.0193 -0.75482,-0.0193 -0.17122,0 -0.51849,0.007 -0.34485,0.007 -0.51848,0.007 -0.0555,0 -0.0699,-0.0482 l -0.0627,-0.34726 q 0,-0.0289 0.16881,-0.0579 0.1881,-0.0338 0.23633,-0.0748 0.33521,-0.2918 0.65836,-0.68971 0.4172,-0.51849 0.4172,-0.78617 0,-0.21945 -0.17845,-0.36173 -0.1664,-0.13264 -0.38827,-0.13264 -0.21463,0 -0.42926,0.0844 -0.1471,0.0579 -0.29421,0.15434 -0.1254,0.0844 -0.1254,0.0844 -0.0193,0 -0.0265,-0.002 -0.0241,-0.0121 -0.0289,-0.0844 -0.002,-0.0579 -0.0145,-0.1664 -0.0506,-0.21945 -0.0506,-0.17845 0,-0.0193 0.0362,-0.0458 0.19292,-0.14711 0.49678,-0.24116 0.2918,-0.0892 0.54984,-0.0892 0.44373,0 0.7307,0.2074 0.32556,0.23392 0.32556,0.66318 0,0.46784 -0.84887,1.31189 -0.0941,0.11093 -0.29662,0.31592 0.0627,0.005 0.15675,0.005 0.47267,0 1.08279,-0.0579 l 0.0193,-0.002 q 0.0506,0 0.0506,0.0772 z"
         style="font-style:normal;font-variant:normal;font-weight:normal;font-stretch:normal;font-size:4.93888903px;font-family:'Berlin Sans FB';-inkscape-font-specification:'Berlin Sans FB, Normal';font-variant-ligatures:normal;font-variant-caps:normal;font-variant-numeric:normal;font-feature-settings:normal;text-align:start;writing-mode:lr-tb;text-anchor:start;stroke-width:0.26458332"
         id="path5015"
         inkscape:connector-curvature="0" />
      <path
         d="m 142.88955,154.59814 q 0,0.0699 -0.007,0.21704 -0.007,0.1447 -0.007,0.21704 0,0.0531 -0.0796,0.0531 0.0265,0 -0.22909,-0.0193 -0.25322,-0.0193 -0.75483,-0.0193 -0.17122,0 -0.51848,0.007 -0.34486,0.007 -0.51849,0.007 -0.0555,0 -0.0699,-0.0482 l -0.0627,-0.34726 q 0,-0.0289 0.16881,-0.0579 0.18811,-0.0338 0.23634,-0.0748 0.33521,-0.2918 0.65836,-0.68971 0.4172,-0.51849 0.4172,-0.78617 0,-0.21945 -0.17846,-0.36173 -0.1664,-0.13264 -0.38826,-0.13264 -0.21463,0 -0.42926,0.0844 -0.14711,0.0579 -0.29421,0.15434 -0.1254,0.0844 -0.1254,0.0844 -0.0193,0 -0.0265,-0.002 -0.0241,-0.0121 -0.0289,-0.0844 -0.002,-0.0579 -0.0145,-0.1664 -0.0506,-0.21945 -0.0506,-0.17845 0,-0.0193 0.0362,-0.0458 0.19293,-0.14711 0.49679,-0.24116 0.29179,-0.0892 0.54983,-0.0892 0.44373,0 0.73071,0.2074 0.32556,0.23392 0.32556,0.66318 0,0.46784 -0.84887,1.31189 -0.0941,0.11093 -0.29663,0.31592 0.0627,0.005 0.15676,0.005 0.47266,0 1.08279,-0.0579 l 0.0193,-0.002 q 0.0507,0 0.0507,0.0772 z"
         style="font-style:normal;font-variant:normal;font-weight:normal;font-stretch:normal;font-size:4.93888903px;font-family:'Berlin Sans FB';-inkscape-font-specification:'Berlin Sans FB, Normal';font-variant-ligatures:normal;font-variant-caps:normal;font-variant-numeric:normal;font-feature-settings:normal;text-align:start;writing-mode:lr-tb;text-anchor:start;stroke-width:0.26458332"
         id="path5017"
         inkscape:connector-curvature="0" />
    </g>
  </g>
</svg>
