<?xml version="1.0" encoding="UTF-8" standalone="no"?>
<svg
   xmlns:dc="http://purl.org/dc/elements/1.1/"
   xmlns:cc="http://creativecommons.org/ns#"
   xmlns:rdf="http://www.w3.org/1999/02/22-rdf-syntax-ns#"
   xmlns:svg="http://www.w3.org/2000/svg"
   xmlns="http://www.w3.org/2000/svg"
   xmlns:xlink="http://www.w3.org/1999/xlink"
   xmlns:sodipodi="http://sodipodi.sourceforge.net/DTD/sodipodi-0.dtd"
   xmlns:inkscape="http://www.inkscape.org/namespaces/inkscape"
   width="103.54976mm"
   height="68.264763mm"
   viewBox="0 0 103.54976 68.264763"
   version="1.1"
   id="svg8"
   sodipodi:docname="Michael+Stefanie_Ampersand.svg"
   inkscape:version="1.0.2 (e86c870879, 2021-01-15)">
  <defs
     id="defs2">
    <clipPath
       id="SVGID_2_">
      <use
         height="100%"
         width="100%"
         y="0"
         x="0"
         xlink:href="#SVGID_1_"
         style="overflow:visible"
         id="use4698" />
    </clipPath>
    <rect
       id="SVGID_1_"
       x="-3.5"
       y="6.8000002"
       width="541.09998"
       height="163.89999" />
  </defs>
  <sodipodi:namedview
     id="base"
     pagecolor="#ffffff"
     bordercolor="#666666"
     borderopacity="1.0"
     inkscape:pageopacity="0.0"
     inkscape:pageshadow="2"
     inkscape:zoom="1.979899"
     inkscape:cx="188.4912"
     inkscape:cy="146.20863"
     inkscape:document-units="mm"
     inkscape:current-layer="layer1"
     showgrid="false"
     inkscape:window-width="1920"
     inkscape:window-height="1149"
     inkscape:window-x="0"
     inkscape:window-y="27"
     inkscape:window-maximized="1"
     fit-margin-top="2"
     fit-margin-left="2"
     fit-margin-bottom="2"
     fit-margin-right="2"
     inkscape:document-rotation="0" />
  <metadata
     id="metadata5">
    <rdf:RDF>
      <cc:Work
         rdf:about="">
        <dc:format>image/svg+xml</dc:format>
        <dc:type
           rdf:resource="http://purl.org/dc/dcmitype/StillImage" />
        <dc:title></dc:title>
      </cc:Work>
    </rdf:RDF>
  </metadata>
  <g
     inkscape:label="Ebene 1"
     inkscape:groupmode="layer"
     id="layer1"
     transform="translate(-46.380052,-90.055683)">
    <path
       inkscape:connector-curvature="0"
       id="path4966"
       style="font-style:normal;font-variant:normal;font-weight:normal;font-stretch:normal;font-size:101.59999847px;line-height:1.25;font-family:Parisienne;-inkscape-font-specification:'Parisienne, Normal';font-variant-ligatures:normal;font-variant-caps:normal;font-variant-numeric:normal;font-feature-settings:normal;text-align:start;letter-spacing:0px;word-spacing:0px;writing-mode:lr-tb;text-anchor:start;fill:#c0c0c0;fill-opacity:1;stroke:none;stroke-width:0.26458332"
       d="m 124.66255,132.35987 q 2.25981,-0.87348 4.64986,-1.31704 3.02414,-0.56123 6.06489,-0.21732 3.04075,0.34389 5.59225,1.5859 2.59121,1.18417 4.40051,3.32077 1.8093,2.13659 2.37053,5.16073 0.49786,2.68271 -0.31421,5.10396 -0.76329,2.41219 -2.57101,4.36228 -1.79867,1.99887 -4.5226,3.36214 -2.71488,1.41206 -6.08046,2.03665 -3.90212,0.72417 -7.67452,0.51605 -3.71457,-0.1684 -7.26322,-1.07398 -3.49986,-0.91463 -6.87352,-2.50862 -3.31584,-1.55427 -6.33197,-3.66871 -3.25292,2.31921 -7.031829,3.97917 -3.72108,1.6997 -7.964637,2.48724 -5.219088,0.96857 -9.134302,0.53468 -3.906162,-0.38513 -6.591416,-1.80414 -2.694305,-1.46778 -4.277823,-3.74718 -1.534741,-2.28846 -2.059763,-5.11749 -0.678909,-3.65825 0.454471,-6.79506 1.173105,-3.19463 3.594799,-5.9146 2.412639,-2.76875 5.793781,-5.21266 3.381139,-2.44391 7.148975,-4.70731 -0.709055,-2.18941 -1.1164,-4.38435 -0.932368,-5.02398 0.160762,-9.4652 1.093132,-4.4412 3.534425,-7.8712 2.490071,-3.439039 5.907419,-5.687848 3.457073,-2.306639 7.212868,-3.003651 2.39005,-0.443553 4.46784,-0.122767 2.07779,0.320785 3.66983,1.286745 1.583,0.917173 2.61336,2.391017 1.07915,1.464792 1.41408,3.269527 0.4707,2.536367 -0.22219,4.784137 -0.65317,2.18993 -2.19891,4.19231 -1.49696,1.99333 -3.7311,3.82073 -2.18537,1.81836 -4.84593,3.52306 -2.61179,1.69567 -5.476512,3.3878 -2.873773,1.64337 -5.738497,3.33551 1.092237,2.62287 2.686827,5.50569 1.643367,2.87378 3.695049,5.77269 2.042633,2.85013 4.475473,5.62785 2.48162,2.76867 5.20159,5.19035 2.47249,-2.17437 4.37574,-4.6972 1.95204,-2.53189 3.17594,-5.18094 1.26362,-2.70687 1.71966,-5.41524 0.50482,-2.71743 0.0251,-5.30258 -0.36208,-1.95106 -0.92077,-3.05833 -0.55868,-1.10728 -0.67082,-1.43966 l 2.36087,-1.14453 q 0.29468,0.50034 0.84985,1.86054 0.60394,1.35115 0.97508,3.351 0.49787,2.6827 0.0383,5.64401 -0.45956,2.9613 -1.77548,5.93016 -1.26714,2.95981 -3.35997,5.82057 -2.04405,2.8517 -4.75488,5.37305 2.61687,2.13808 5.40522,3.8407 2.83711,1.69356 5.76071,2.7656 2.9236,1.07203 5.8668,1.43404 2.99198,0.35296 5.96735,-0.19922 2.43882,-0.45261 4.56487,-1.50311 2.12604,-1.05049 3.58881,-2.68427 1.47182,-1.58502 2.11594,-3.82373 0.65317,-2.18992 0.1372,-4.97019 -0.46166,-2.48761 -1.82994,-4.15101 -1.37734,-1.7122 -3.31987,-2.66356 -1.95159,-1.00014 -4.26421,-1.2269 -2.2729,-0.28458 -4.61417,0.14993 -1.02431,0.19009 -1.98174,0.46867 -0.90865,0.26952 -1.71069,0.56976 z m -37.769344,-7.21935 q -2.828514,1.88724 -5.279384,3.90623 -2.402094,2.00994 -4.048898,4.28337 -1.655859,2.22463 -2.391994,4.78316 -0.736136,2.55852 -0.193008,5.48512 0.461656,2.4876 1.640375,4.48894 1.218441,1.9435 3.224339,3.2363 2.045622,1.23497 4.891269,1.61509 2.845648,0.38011 6.601439,-0.3169 3.316804,-0.61555 6.497826,-1.96274 3.18102,-1.3472 6.00048,-3.28322 -2.93669,-2.2301 -5.497756,-4.88311 -2.56107,-2.65301 -4.701253,-5.48504 -2.149234,-2.8808 -3.859482,-5.84308 -1.719299,-3.01105 -2.883953,-6.02412 z M 111.18308,99.693298 q -0.2082,-1.121864 -0.90416,-2.153198 -0.64719,-1.040395 -1.78565,-1.737332 -1.0897,-0.705989 -2.70134,-0.961912 -1.56287,-0.264975 -3.56271,0.106161 -2.731483,0.506918 -5.361376,2.105018 -2.590167,1.54028 -4.457215,4.258225 -1.827323,2.66012 -2.620764,6.54114 -0.753714,3.8232 0.178652,8.84718 0.144834,0.78042 0.347497,1.60057 0.202663,0.82015 0.511931,1.67097 4.148996,-2.38459 8.063161,-4.67514 3.905114,-2.33933 6.838214,-4.75056 2.92405,-2.45999 4.44966,-5.11457 1.57439,-2.66363 1.0041,-5.736552 z"
       inkscape:label="Ampersand" />
  </g>
</svg>
